<?xml version="1.0" standalone="no"?> <!DOCTYPE svg PUBLIC "-//W3C//DTD SVG 1.0//EN" "http://www.w3.org/TR/2001/REC-SVG-20010904/DTD/svg10.dtd" > <svg xmlns="http://www.w3.org/2000/svg" width="100%" height="100%">
<defs >
<font id="OptimusPrincepsSemiBold" horiz-adv-x="521" ><font-face
    font-family="OptimusPrincepsSemiBold"
    units-per-em="1000"
    panose-1="2 0 8 5 6 0 0 2 0 4"
    ascent="892"
    descent="-200"
    alphabetic="0" />
<missing-glyph horiz-adv-x="1000" />
<glyph unicode=" " glyph-name="space" horiz-adv-x="244" />
<glyph unicode="!" glyph-name="exclam" horiz-adv-x="139" d="M119 685L105 695Q93 693 78 685T49 664T26 637T17 609Q17 593 18 559T22 481T28 391T37 303T47 230T60 187Q65 181 73 182T82 191Q87 252 91 314T100 438Q105 501 109 562T119 685ZM121 92Q121 114
106 130T67 147Q46 147 33 135T19 104Q19 95 22 85T32 66T47 51T68 45Q88 45 104 58T121 92Z" />
<glyph unicode="&quot;" glyph-name="quotedbl" horiz-adv-x="237" d="M217 759Q217 776 205 788T173 800Q159 800 150 795T136 783T129 767T127 753Q127 747 127 739Q127 732 128 726L145 520Q146 511 155 505T174 499Q192 499 196 511T200 533V537L209 647Q209
649 209 654T211 664Q212 668 212 672Q212 676 212 678Q213 694 214 710T216 742Q217 745 217 749Q217 754 217 759ZM110 759Q110 776 98 788T65 800Q51 800 43 795T29 783T22 767T20 753Q20 747 20 739Q20 732 21 726L38 520Q39 511 48 505T66 499Q85 499 89 511T93
533V537L101 647Q101 649 101 654T103 664Q104 668 104 672Q104 676 104 678Q105 694 106 710T109 742Q110 745 110 749Q110 754 110 759Z" />
<glyph unicode="#" glyph-name="numbersign" horiz-adv-x="507" d="M484 479Q486 488 472 488H414Q425 533 431 577T443 666Q444 670 441 672T433 676L388 683Q383 684 379 682T374 677Q365 629 356 582T337 487Q302 486 274 485T212 482Q216 502 218 518T225
555Q230 584 233 612T241 668Q243 677 232 677L187 683Q182 684 178 682T173 677Q163 627 155 578T136 480L79 478Q70 478 68 470L60 428Q58 418 71 418Q82 417 98 417Q115 417 126 416Q119 377 115 341T103 266L42 264Q39 264 36 262T31 256L23 212Q22 209 26
206T35 203Q49 202 64 201T93 198L78 83Q78 81 78 78T77 72Q74 54 72 36T67 0Q65 -8 76 -10L101 -17Q114 -19 116 -10L135 75Q136 80 138 88Q144 114 149 139T159 189Q159 191 159 193T160 197Q192 195 225 195T292 192L265 2Q264 -2 267 -4T275 -8L301 -12Q310
-12 312 -6Q313 -4 314 -1T314 1Q316 3 316 4T317 8L345 132L350 162Q352 169 353 176T356 191L425 189Q428 189 431 191T436 196L448 265Q450 276 436 276Q421 276 406 276T375 275Q383 310 387 340T399 405L462 404Q471 404 473 411L484 479ZM325 405Q319 370
314 340T303 275Q270 273 239 273T175 270Q183 310 189 342T202 412L325 405Z" />
<glyph unicode="$" glyph-name="dollar" horiz-adv-x="379" d="M358 224Q358 286 321 333T227 405Q228 412 228 415T228 426Q232 474 236 520T247 615Q272 610 289 592T306 548L304 531Q304 523 313 522T326 528Q335 549 337 571T340 614Q340 621 340 626Q340
632 339 637Q339 642 332 644Q315 652 294 658T251 664Q253 672 253 675T253 689Q254 698 254 707T257 725Q258 730 255 732T246 735Q232 736 224 731T211 718T205 699T203 679V660Q168 661 139 651T89 621T56 573T44 510Q44 450 80 406T171 340Q167 280 163 225T153
110Q134 112 118 121T90 146T72 179T65 217V224Q65 230 59 232T47 231L33 220Q25 201 23 180T21 140Q21 132 21 125Q21 118 22 111Q22 109 24 107T28 104Q54 89 84 78T146 62Q144 53 144 49T144 37T143 21T140 4Q138 -7 152 -7L162 -8Q184 -8 189 7T196 41Q197
47 197 53T199 64Q232 68 260 80T311 113T345 161T358 224ZM197 615Q192 570 188 525T180 435Q155 451 138 477T121 534Q121 569 143 590T197 615ZM279 204Q279 169 258 145T204 113Q206 141 207 163T211 213Q213 236 214 260T218 309Q244 292 261 265T279 204Z"
/>
<glyph unicode="%" glyph-name="percent" horiz-adv-x="670" d="M645 214Q645 242 637 268T611 316T570 349T513 362Q480 362 454 351T408 319T378 271T367 213Q367 184 376 157T402 108T445 75T504 62Q536 62 562 74T606 108T635 156T645 214ZM492 658L480 669Q467
667 441 666T380 662Q341 659 298 656T217 650T150 642T114 635Q72 618 49 587T25 511Q25 482 36 453T68 401T115 362T173 347Q204 347 230 363T276 403T305 457T316 515Q316 543 307 567T277 610Q315 616 346 618T416 620H422Q375 513 327 404T230 191Q216 161
203 131T175 71Q172 66 175 62T186 58Q188 58 191 58T198 57Q208 56 224 58T248 73Q255 83 263 99T278 133T294 170T309 207Q314 218 317 228T324 246Q369 349 409 451T492 658ZM575 226Q575 191 562 156T520 101Q499 105 483 118T455 149T438 188T432 232Q432
250 436 266T450 296T474 317T507 325Q525 325 538 316T559 293T571 261T575 226ZM242 511Q242 476 229 443T187 393Q164 394 148 405T120 434T104 474T98 517Q98 535 102 552T115 583T138 605T171 614Q190 614 203 605T225 580T238 547T242 511Z" />
<glyph unicode="&amp;" glyph-name="ampersand" horiz-adv-x="727" d="M697 69L691 83Q631 91 581 121T488 194Q500 211 511 235T531 285T548 336T560 380Q562 386 554 390Q536 400 512 405T466 410Q441 410 422 404Q414 402 415 395T425 387Q450 384 466 371T482
329Q482 302 471 275T446 223Q438 231 434 235T418 249Q384 280 343 319T265 401T205 484T181 562Q181 601 206 627T268 653Q287 653 305 646T338 627T361 596T370 557Q370 553 370 550Q370 548 369 543Q368 539 371 537T377 534T385 534T391 539Q399 557 402 576T405
615Q405 630 404 645T398 674Q396 678 390 680Q366 690 339 694T285 699Q250 699 216 686T155 651T112 597T95 529Q95 500 107 475T140 429Q117 409 97 389T61 346T36 297T26 238Q26 194 44 160T93 102T162 66T241 53Q268 53 293 60T342 78T388 103T430 132Q442
121 458 109T493 86T529 68T565 60H571Q581 60 600 60Q620 60 640 60T676 63T697 69ZM393 161Q367 132 335 115T266 98Q234 98 206 111T156 146T122 197T109 258Q109 297 123 329T163 389Q212 328 271 270T393 161Z" />
<glyph unicode="&apos;" glyph-name="quotesingle" horiz-adv-x="128" d="M109 759Q109 776 96 788T63 800Q49 800 40 795T26 783T19 767T17 753Q17 750 17 747T18 741V726Q23 675 27 624T37 520Q38 511 47 505T65 499Q83 499 86 512T90 535L100 648Q100 650 100
654Q100 659 101 664Q101 667 101 671T102 677L108 742L97 750Q109 750 109 759Z" />
<glyph unicode="(" glyph-name="parenleft" horiz-adv-x="238" d="M216 24Q162 98 130 183T97 363Q97 457 129 542T216 703Q222 708 215 713T199 714Q162 679 130 639T73 553T34 459T20 356Q20 305 34 257T72 166T128 84T199 12L216 24Z" />
<glyph unicode=")" glyph-name="parenright" horiz-adv-x="243" d="M223 370Q223 422 209 470T171 562T113 645T43 718L25 706Q79 631 112 544T145 362Q145 268 112 183T22 24Q16 18 23 13T39 12Q77 46 110 86T169 172T208 267T223 370Z" />
<glyph unicode="*" glyph-name="asterisk" horiz-adv-x="291" d="M300 602Q298 615 292 634T271 662Q263 665 256 660Q246 649 228 634T196 615Q197 620 198 625T202 635Q207 652 211 667T215 701Q215 711 211 722Q207 730 198 728Q181 725 166 720T136 703Q130
699 132 694L142 669Q147 657 151 644T156 619Q153 621 150 623T143 628Q125 641 105 652T70 664Q66 664 63 664T54 660T49 653Q49 645 49 639T51 625Q52 617 52 611T53 597Q53 591 65 589L77 588Q82 588 88 588Q94 588 100 589Q112 590 123 590Q135 590 143 587Q139
583 138 583T130 576Q119 567 107 556T85 535T67 514T60 497Q60 489 70 487Q84 484 98 482T128 479H132Q142 479 144 487Q147 506 153 525T171 560Q173 555 174 552T178 543Q182 531 187 519T198 496T211 479T229 472Q238 472 245 478T257 492T265 509T270 522Q266
534 256 542T232 559Q223 566 215 571T204 585Q221 586 237 586T269 589Q274 590 279 590Q285 590 290 591L300 602Z" />
<glyph unicode="+" glyph-name="plus" horiz-adv-x="759" d="M733 391V429Q733 437 721 437H407V761Q407 770 396 770H360Q348 770 348 761V437H38Q26 437 26 429V391Q26 382 38 382H348V61Q348 52 360 52H396Q407 52 407 61V382H721Q733 382 733 391Z" />
<glyph unicode="," glyph-name="comma" horiz-adv-x="137" d="M119 119Q119 140 107 154T78 178L69 179Q62 177 53 172T37 160T24 144T18 127Q18 125 24 119Q46 99 46 71Q46 56 42 45T33 20V21Q30 13 29 9T25 -1Q23 -8 31 -11T46 -9Q57 3 69 18T93 50T111 84T119 119Z" />
<glyph unicode="-" glyph-name="hyphen" horiz-adv-x="352" d="M287 351Q283 352 265 353T221 354T166 355T111 356Q86 356 67 356Q49 356 45 356Q42 356 39 355T34 351Q28 334 25 319T20 288Q19 283 24 281T36 279Q67 291 102 298T172 311Q201 316 230 321T286
334L287 351Z" />
<glyph unicode="." glyph-name="period" horiz-adv-x="201" d="M154 113Q154 133 138 151T98 170Q74 170 61 155T47 120Q47 101 59 82T95 62Q105 62 115 66T134 77T148 93T154 113Z" />
<glyph unicode="/" glyph-name="slash" horiz-adv-x="479" d="M454 666L450 678L414 693Q411 695 407 694T400 690Q380 658 360 625T319 560Q245 442 172 326T24 91Q24 90 23 88T23 84Q26 71 39 62T65 49Q68 48 72 49T78 53Q174 207 267 359T454 666Z" />
<glyph unicode="0" glyph-name="zero" horiz-adv-x="493" d="M470 410Q470 457 459 503T423 586T359 645T263 668Q200 668 155 643T81 577T37 483T23 377Q23 324 37 267T81 163T156 83T265 49L269 50Q319 74 357 114T420 202T457 304T470 410ZM375 382Q375 349
370 308T352 226T320 150T270 97Q226 110 196 143T147 220T120 311T111 401Q111 430 116 468T134 540T171 597T230 621Q273 621 301 597T345 537T368 459T375 382Z" />
<glyph unicode="1" glyph-name="one" horiz-adv-x="339" d="M316 75Q309 83 299 85T276 89Q267 90 258 92T242 99T229 115T224 145Q224 202 224 257Q224 312 225 369T226 481Q226 536 226 592V607Q226 623 226 637Q226 652 224 666Q223 671 218 672T206 672Q158
646 112 617T25 553Q18 549 21 543T33 538Q47 540 61 545T87 556Q99 562 109 566T127 571Q135 571 140 566V140Q140 123 135 113T122 98T103 91T80 88Q72 87 62 86T44 83Q35 82 35 75T46 66Q111 64 176 63T306 61L316 75Z" />
<glyph unicode="2" glyph-name="two" horiz-adv-x="439" d="M416 206L394 209Q383 181 370 164T339 138T300 127T252 124H170H135Q177 155 222 200T305 297T366 404T390 512Q390 559 371 589T321 636T251 659T173 666Q146 666 115 657T61 637Q54 635 54 630Q53
623 53 616T52 600Q52 578 54 556T65 511Q68 504 77 505T87 513Q88 557 112 589T180 621Q206 621 228 610T267 580T293 537T302 488Q302 449 284 408T238 327T175 247T106 171Q83 146 62 123T25 80Q20 75 23 70T34 65H360Q375 65 385 83T403 126T413 173T416 206Z"
/>
<glyph unicode="3" glyph-name="three" horiz-adv-x="415" d="M393 266Q393 296 383 319T356 359T315 389T266 410Q281 422 295 437T321 468T340 504T348 543Q348 571 338 594T310 635T268 662T216 672Q179 672 136 662T59 637Q52 635 52 630Q50 616 49 602T48
574Q48 562 49 551T53 529Q55 522 65 522Q75 522 76 530Q80 571 105 596T171 622Q191 622 209 615T241 596T263 565T271 526Q271 498 262 479T239 446T209 425T178 410Q163 403 152 398T136 386L144 372Q170 367 198 355T250 324T289 280T304 225Q304 198 290 174T255
132T206 104T153 94Q107 94 86 126T62 202Q61 210 52 211T39 205Q30 182 26 157T22 106Q22 104 22 101T23 95V84Q23 80 28 78Q51 59 80 50T140 40Q182 40 227 58T309 108T369 181T393 266Z" />
<glyph unicode="4" glyph-name="four" horiz-adv-x="496" d="M473 280Q473 286 473 290T471 298L456 304Q434 296 412 296Q394 296 381 300V665Q381 671 374 673T360 670Q341 651 312 619T248 547T178 465T111 382T57 307T24 249Q21 244 24 241T34 238H298Q297
224 297 215T298 193V166Q298 151 297 134T290 103V104Q285 93 274 90T253 86Q240 84 232 83T219 74Q216 69 219 65T229 61H300L446 62Q455 62 457 68T452 79Q438 86 427 89T407 94Q400 95 395 97T387 106T382 126T380 164Q380 173 380 181Q380 190 381 199Q382
209 382 218T382 239H391Q403 239 417 239T444 243T465 255T473 280ZM296 299H110Q135 330 158 359T203 416T249 473T296 532V299Z" />
<glyph unicode="5" glyph-name="five" horiz-adv-x="386" d="M365 646L353 655Q341 655 332 652Q322 648 319 648H97Q94 648 91 646T86 641Q76 590 71 536T64 428Q64 421 75 419Q145 410 190 381T270 286Q276 275 280 261T284 232Q284 204 271 180T236 138T189
110T136 99Q92 99 72 129T54 202Q54 210 44 210T30 204Q24 184 23 162T21 117Q21 106 21 94Q21 83 22 72Q22 66 30 64Q51 56 76 53T125 49Q171 49 212 63T286 104T337 169T356 255Q356 303 338 346T288 423T213 475T121 493Q123 517 124 540T129 588H290Q307 588
313 575T323 550Q325 546 327 540T333 529Q338 525 344 526T353 533Q365 588 365 646Z" />
<glyph unicode="6" glyph-name="six" horiz-adv-x="442" d="M420 235Q420 266 411 298T384 358T339 402T274 420Q240 420 210 406T155 373Q147 368 152 362T165 358Q179 363 193 367T224 371Q254 371 276 358T314 322T336 272T344 216Q344 195 340 173T325 132T298
101T258 89Q223 89 195 104T146 145T115 203T103 268Q103 322 123 377T175 483T250 577T336 650L324 665Q268 641 214 599T117 504T48 390T22 265Q22 218 41 177T92 104T166 54T256 35Q297 35 328 53T379 99T410 163T420 235Z" />
<glyph unicode="7" glyph-name="seven" horiz-adv-x="419" d="M396 635L385 648Q367 648 347 648T305 646Q281 645 257 645T209 644Q165 644 124 647T48 659Q34 661 34 651Q33 642 32 633T29 614Q26 595 24 576T22 537Q22 529 23 521T29 505Q33 499 41 500T50
509Q52 524 58 538T74 563T96 581T124 588H295Q299 588 303 588Q307 588 309 589H316Q284 536 248 469T177 331T117 190T82 60Q81 55 85 52T96 50Q103 51 116 56T144 68T169 83T183 100Q188 117 192 134T202 169Q208 192 214 214T225 253Q259 349 303 446T396 635Z"
/>
<glyph unicode="8" glyph-name="eight" horiz-adv-x="429" d="M407 243Q407 300 375 339T292 398Q330 420 355 455T381 534Q381 563 368 588T334 633T286 663T230 674Q196 674 164 659T108 620T68 565T53 500Q53 456 80 426T144 378Q91 357 57 315T22 213Q22 175
38 144T82 92T143 59T214 47Q254 47 289 63T350 107T391 169T407 243ZM304 529Q304 496 289 466T244 421Q222 421 202 432T167 460T144 500T135 545Q135 583 162 605T225 627Q244 627 259 619T284 597T299 565T304 529ZM322 220Q322 200 316 178T297 138T268 108T230
96Q201 96 178 108T139 140T115 186T106 240Q106 291 133 324T211 357Q237 357 257 345T292 314T314 270T322 220Z" />
<glyph unicode="9" glyph-name="nine" horiz-adv-x="430" d="M408 445Q408 489 391 532T343 608T271 662T183 683Q144 683 114 665T63 619T33 555T22 485Q22 455 31 426T57 372T100 334T161 319Q198 319 230 333T289 368L276 383Q262 375 247 369T216 363Q187
363 165 378T128 417T105 469T97 524Q97 566 115 592T176 619Q212 619 239 607T284 572T312 520T321 456Q321 401 303 344T254 235T183 140T97 67Q89 63 94 55T108 51Q165 74 219 115T315 208T382 321T408 445Z" />
<glyph unicode=":" glyph-name="colon" horiz-adv-x="142" d="M124 409Q124 429 108 447T68 466Q44 466 31 451T17 415Q17 406 20 396T29 378T44 363T65 357Q75 357 85 361T104 372T118 389T124 409ZM124 138Q124 158 108 176T68 195Q44 195 31 180T17 145Q17
127 29 107T65 87Q75 87 85 91T104 102T118 118T124 138Z" />
<glyph unicode=";" glyph-name="semicolon" horiz-adv-x="143" d="M125 409Q125 429 109 447T69 466Q45 466 32 451T18 415Q18 406 21 396T30 378T45 363T66 357Q76 357 86 361T105 372T119 389T125 409ZM117 119Q117 139 108 156T74 179L67 178Q56 173 42 164T27
138Q27 130 29 125T36 112Q41 103 44 92T48 69Q48 51 42 36T28 6Q24 1 27 -3T38 -7Q56 -7 70 8T95 43T111 84T117 119Z" />
<glyph unicode="&lt;" glyph-name="less" horiz-adv-x="238" d="M214 220V233Q210 236 200 246T177 270T150 299T124 327T104 349T96 361Q96 365 111 384T146 427Q168 453 188 477T214 513Q217 520 210 524T195 524Q150 485 107 445T22 359Q18 355 22 348Q55 306
91 265T169 186Q179 179 186 188Q197 205 214 220Z" />
<glyph unicode="=" glyph-name="equal" horiz-adv-x="352" d="M287 385Q283 386 265 386T221 387T166 388T111 389Q86 389 67 389Q49 389 45 389Q42 389 39 388T34 385Q23 362 20 337Q19 333 24 331T36 330Q67 339 102 344T172 354Q201 358 230 361T286 372L287
385ZM287 315Q283 316 265 316T221 317T166 318T111 319Q86 319 67 319Q49 319 45 319Q42 319 39 318T34 315Q23 292 20 267Q19 263 24 261T36 260Q67 269 102 274T172 284Q201 288 230 291T286 302L287 315Z" />
<glyph unicode="&gt;" glyph-name="greater" horiz-adv-x="239" d="M217 332Q186 374 149 415T70 494Q59 501 53 493Q45 483 39 475T24 461Q15 454 23 447Q29 442 48 423T88 382T125 342T142 321Q142 316 126 296T89 249Q68 223 49 201T25 168Q21 162 28 157T43
157Q83 186 117 220T183 288Q191 296 199 305T215 322L217 332Z" />
<glyph unicode="?" glyph-name="question" horiz-adv-x="365" d="M344 562Q344 593 329 619T290 665T236 695T177 706Q155 706 128 701T77 683T37 652T21 604Q21 586 28 569T46 537Q50 532 57 533T67 540Q71 558 77 576T92 607T114 629T148 638Q167 638 186 635T220
624T244 602T253 565Q253 537 241 505T210 441T172 379T136 327Q123 308 115 296T106 278Q106 267 114 254T134 228T159 208T185 199Q194 199 196 204T192 214Q175 228 175 246Q175 272 196 303T244 369Q262 391 279 415T311 464T335 513T344 562ZM223 92Q223 114
208 130T169 147Q148 147 135 135T122 104Q122 95 125 85T134 66T149 51T170 45Q191 45 207 58T223 92Z" />
<glyph unicode="@" glyph-name="at" horiz-adv-x="714" d="M688 358Q691 410 674 458T619 543T520 602T378 624Q293 624 229 598T121 526T54 423T27 301Q24 250 36 209T72 136T126 80T193 42T264 19T334 12Q414 12 492 41V40L496 41H491Q506 45 510 46T517 48Q522
49 524 52T524 57L516 82Q514 89 503 85Q495 82 482 77T449 66Q431 61 408 57T359 53Q299 53 251 73T169 130T120 216T106 324Q107 342 112 368T128 422T159 479T209 530T282 567T380 581Q435 581 479 565T553 517T599 439T612 335Q610 295 601 269T578 226T551
204T525 197Q505 197 493 211T483 246Q483 249 483 255T485 268L486 287Q488 310 490 337T496 387Q497 394 497 400T499 415Q501 423 501 429T503 443Q503 447 493 452T469 461T444 467T427 471Q413 473 404 473T393 474Q346 474 314 457T260 412T229 353T216 293Q214
254 224 228T252 187T289 164T324 157H339Q357 169 376 182T414 209Q426 189 449 172T509 155Q540 155 571 169T627 209T668 273T688 358ZM421 386L417 318L415 281L413 248Q401 237 386 230T355 222Q327 222 305 249T286 329Q287 348 293 366T308 398T331 420T362
429Q366 429 373 427T389 421T406 408T421 386Z" />
<glyph unicode="A" glyph-name="A" horiz-adv-x="805" d="M778 1V19Q749 21 724 33T684 74Q663 119 642 169T599 273T559 378T521 478Q508 513 494 546T467 611Q465 615 464 621T458 633Q447 664 433 700T402 755Q398 760 393 757T386 750Q349 653 313 557T242
364Q218 298 195 229T145 93Q140 81 132 68T112 43T88 24T62 16Q61 16 57 16T50 14Q46 10 48 6Q49 4 51 2T53 0L261 -1Q271 -1 271 6T262 16Q247 18 232 23T216 46Q216 59 224 91T245 160T269 231T290 284H487Q510 221 534 158T583 32L548 14Q542 9 545 5T556 0Q577
-2 608 -1T661 0Q691 0 720 0T778 1ZM467 337H306Q328 400 346 457T385 578L467 337Z" />
<glyph unicode="B" glyph-name="B" horiz-adv-x="565" d="M541 218Q541 255 529 287T496 346T445 391T381 422Q398 438 414 457T442 497T462 540T470 587Q470 628 450 658T400 708T332 737T259 747Q236 747 216 746T175 742Q154 740 134 739T94 737Q65 737 38
744Q30 745 26 740T26 730Q34 719 44 717T68 712Q74 711 80 710T92 705T101 691T104 667V115Q104 90 103 75T95 51T76 36T42 23L46 6H182Q190 6 202 6Q214 6 228 5Q246 4 265 4T301 3Q318 3 332 3T355 6Q394 13 428 32T487 80T526 143T541 218ZM373 572Q373 530
361 504T327 462T276 442T210 437V699Q232 706 258 706Q285 706 306 695T342 666T365 623T373 572ZM440 188Q440 159 431 133T404 87T362 56T308 44Q294 44 277 49T244 64T219 87T209 118V388Q237 388 268 386T324 371Q349 359 370 340T407 296T431 245T440 188Z"
/>
<glyph unicode="C" glyph-name="C" horiz-adv-x="726" d="M700 148Q700 166 697 183L675 185Q657 148 640 120T599 74T546 46T472 37Q397 37 335 68T226 151T155 270T129 409Q129 478 150 534T211 630T306 692T431 714Q473 714 510 703T576 670T625 616T652 540Q654
532 663 532Q673 532 675 540Q683 585 688 630T694 722Q694 731 684 731Q659 733 633 736T581 744Q546 749 510 753T437 758Q405 758 366 754T287 740T213 714T155 674Q93 611 60 530T26 360Q26 278 54 211T133 95T252 20T404 -7Q469 -7 532 -1T659 16Q665 16 668
21Q683 48 691 83T700 148Z" />
<glyph unicode="D" glyph-name="D" horiz-adv-x="802" d="M775 382Q775 399 775 419Q775 440 773 459Q770 496 751 532T704 600T638 658T562 704T483 735T408 746Q383 746 355 746T301 743Q273 741 247 740T194 738Q172 738 152 739T109 742Q92 743 74 744T38
745Q32 745 29 741T28 732Q31 724 40 722T61 717Q68 716 76 714T91 707T102 693T107 669V116Q107 94 105 79T97 53T78 35T46 24Q36 22 37 14T49 6Q89 8 129 6T210 0Q244 -3 279 -5T349 -7Q445 -7 523 16T658 88T744 209T775 382ZM671 345Q671 269 647 212T581 118T478
61T346 42Q319 42 286 47T229 69Q224 73 221 84T215 107T213 133T212 154V683Q236 691 260 694T311 697Q390 697 456 672T570 602T644 491T671 345Z" />
<glyph unicode="E" glyph-name="E" horiz-adv-x="496" d="M473 131Q474 135 471 137T463 140T455 140T450 135Q439 90 408 67T333 44Q300 44 265 57T211 102V372H228Q242 372 264 372Q286 372 308 371T350 366T375 356Q380 352 382 343T388 325Q390 319 393 311T403
297Q409 292 416 294T423 302Q426 341 432 378Q434 393 436 408T440 439Q441 444 436 447T425 449Q420 448 412 445T392 436Q382 431 372 428T357 424H210V691Q218 689 220 690T231 691Q242 691 252 691Q263 691 273 692Q282 693 291 693Q300 693 308 693Q349 693
375 679T406 618Q407 610 417 610Q427 610 429 618Q430 623 431 626T433 633Q439 659 444 687T453 743Q454 748 449 750T436 751Q424 744 418 744H34Q26 744 23 738T28 728Q38 721 48 717T69 711Q76 709 82 707T94 701T103 688T106 667V110Q106 93 104 78T96 50T79
31T48 23Q38 23 38 15T47 6Q83 2 124 1T207 0Q230 0 253 0T299 1H426L444 6Q452 6 454 13L457 37Q460 61 463 84T473 131Z" />
<glyph unicode="F" glyph-name="F" horiz-adv-x="488" d="M465 743L449 751Q422 740 396 740H291Q226 740 163 740T34 743Q26 743 24 737T29 726Q39 720 49 717T68 711Q76 709 82 707T94 701T102 688T105 664V110Q105 86 104 71T97 46T79 31T45 22Q35 20 35 13T46
5Q107 2 170 2Q231 2 291 5L289 22Q239 20 225 42T210 113V369Q218 368 223 368Q229 368 237 368Q248 368 257 368T278 370Q288 371 297 371T315 372Q354 372 375 357T396 298Q396 294 399 292T407 290T414 290T419 296Q427 331 432 367T439 440Q439 447 432 449T419
446Q414 440 402 432T382 423H210V679Q226 679 237 681T264 685Q282 687 299 689T333 691Q372 691 395 674T418 614Q418 608 423 606T436 607Q444 613 449 624T456 650T460 679T462 709Q463 719 463 728T465 743Z" />
<glyph unicode="G" glyph-name="G" horiz-adv-x="794" d="M758 353L757 370Q698 373 640 374T522 375Q513 375 511 369T516 358Q525 353 534 351T553 345Q567 340 579 332T592 304V83Q569 60 538 54T477 47Q457 47 433 50T384 58T338 72T298 93Q261 119 230 154T176
230T140 317T127 409Q127 477 151 533T217 630T317 693T442 715Q481 715 517 706T582 678T631 628T658 556Q659 551 664 550T675 550Q683 554 688 573T697 617T701 667T702 709V722Q702 725 699 728T691 731Q671 733 653 736T614 742Q571 748 526 753T435 758Q351
758 277 735T147 665T59 550T26 392Q26 318 50 249T120 126T230 36T372 -6Q415 -9 460 -9Q488 -9 519 -8T581 0T640 16T693 45Q698 47 698 52V301Q698 315 703 324T716 338T735 347T758 353Z" />
<glyph unicode="H" glyph-name="H" horiz-adv-x="832" d="M801 15Q792 24 781 26T758 30Q753 31 746 31T736 34Q732 35 728 46T721 70T716 96T714 114V666Q714 697 731 706T774 721Q783 723 783 730T773 739Q715 743 657 744T539 745Q534 745 530 742T527 735Q529
722 543 719T573 715Q578 715 584 713Q599 709 604 696T609 665V436H212V666Q212 692 229 705T270 719Q279 719 279 727T271 737Q213 742 156 743T39 745Q32 745 29 741T28 732Q32 722 41 719T65 715Q72 714 79 713T93 707T102 692T106 665V111Q106 86 105 71T98
47T80 33T46 24Q37 22 37 15T47 6Q108 3 171 3Q232 3 292 6Q302 7 301 16T290 24Q265 22 250 27T226 44T214 72T211 114V386H609V111Q609 101 608 87T602 58T590 34T572 24Q566 24 556 28Q548 31 543 24T546 12Q554 8 568 6T598 2T628 1Q643 1 652 1H793Q801 1
804 5T801 15Z" />
<glyph unicode="I" glyph-name="I" horiz-adv-x="312" d="M288 16Q279 25 268 26T246 28Q241 28 233 30T220 34Q217 38 214 49T207 74T202 98T200 115V666Q200 697 217 707T261 722Q271 724 270 731T259 740Q230 742 202 741T146 740Q117 740 89 740T31 739Q22
738 22 730Q22 722 31 721Q57 718 76 707T95 665V119Q95 109 94 95T88 66T76 42T58 32Q55 32 42 29T23 27Q19 29 15 27T9 20T7 12Q7 8 11 6Q18 3 53 4T133 6Q160 6 186 6T233 4T267 3T280 2Q288 2 290 6T288 16Z" />
<glyph unicode="J" glyph-name="J" horiz-adv-x="350" d="M300 723L299 740Q253 742 207 743T114 745H67Q59 745 57 741T57 731Q64 720 74 718T98 715Q105 715 111 714T123 708T131 693T135 665V81Q135 63 132 36T124 -20T110 -75T93 -117Q87 -125 75 -139T51
-167Q34 -186 20 -201T3 -225Q0 -231 5 -235T18 -236Q63 -214 103 -183T174 -113T223 -27T241 71V666Q241 697 257 707T300 723Z" />
<glyph unicode="K" glyph-name="K" horiz-adv-x="788" d="M756 9L750 26Q712 25 664 54T566 127T467 223T375 321Q350 347 329 372T289 414Q309 433 332 457T379 509Q411 544 445 580T515 647T584 698T651 723Q661 724 661 732Q661 740 651 741Q628 743 606 741T561
739Q535 739 511 739T461 740Q453 741 450 737T450 728Q456 717 456 703Q456 686 442 665T408 621T363 577T320 537Q313 531 306 523T293 510Q277 494 254 470T214 426Q213 484 212 544T212 658Q212 682 229 701T270 722Q280 723 280 731Q280 739 270 740Q212 744
154 743T38 741Q30 741 27 738T28 729Q34 719 43 717T65 712Q72 711 79 710T93 703T102 689T106 662V106Q106 82 105 67T97 42T79 27T46 18Q36 16 36 8T47 0Q107 -2 167 0T287 3Q295 3 298 9T293 19Q279 27 267 28T244 32Q236 33 230 35T219 45T213 69T211 116V358Q232
338 254 313T302 258Q343 212 388 164T479 75T573 10T668 -16Q715 -16 756 9Z" />
<glyph unicode="L" glyph-name="L" horiz-adv-x="526" d="M502 142Q503 146 500 148T494 151T486 151T479 147Q457 101 416 73T326 45Q276 45 242 75T208 158V666Q208 691 223 705T261 717L275 716Q284 715 285 723T279 734Q254 742 227 741T172 739H35Q28 739
25 735T24 726Q28 716 38 713T61 709Q68 708 75 707T89 701T99 686T103 659V107Q103 90 101 75T92 48T75 29T46 20Q36 20 36 12T45 2Q72 0 99 3T155 6Q183 6 210 5T265 5Q292 6 319 6Q346 6 372 6Q401 6 430 6T490 2Q492 28 494 57T500 124Q500 129 500 133T502
142Z" />
<glyph unicode="M" glyph-name="M" horiz-adv-x="1040" d="M1003 17Q992 22 982 24T962 29Q946 32 932 37T905 63Q899 73 894 95T883 146T874 210T866 280T859 350T854 414Q852 436 851 454T848 484Q841 550 834 616T818 749Q817 756 810 757T797 753Q770 712
749 669T708 584L688 540Q667 494 646 450T605 361Q581 308 557 257T507 153Q496 173 482 203T443 286Q422 330 398 379T350 477T303 572T260 655T224 718T198 754Q192 759 186 757T179 749Q177 734 174 701T165 622Q160 571 154 511T141 388T127 267T114 159T103
80T94 41Q88 28 80 26T60 21Q55 20 45 18T34 17Q29 13 30 8T40 1Q91 -2 142 -1T245 0Q255 0 256 6T250 16Q237 22 228 26T210 33H211Q201 37 196 40T189 48T186 62T185 88V117Q185 186 193 257T211 398Q215 425 218 453T224 509Q236 487 244 470T259 437T273 404T292
363Q334 270 378 180T485 6Q490 2 496 2Q502 2 505 7Q524 46 542 84T578 161Q620 250 662 338T749 513Q751 491 753 474T757 441T761 407T766 368Q775 296 782 217T789 65Q789 52 789 40T784 14Q782 9 785 6T795 2Q846 -1 896 0T999 1L1003 17Z" />
<glyph unicode="N" glyph-name="N" horiz-adv-x="854" d="M807 711L805 728Q769 730 733 730T662 729H590Q582 729 580 724T583 715Q588 709 596 707T616 703Q625 701 634 699T650 691T663 671T668 635Q668 525 671 416T675 197Q675 189 675 182T674 166Q410 457
133 740Q125 746 117 740Q111 734 107 729T103 715V85Q103 60 89 45T51 24L37 21Q28 19 27 12T34 3Q58 -2 85 1T138 4L265 1Q273 1 276 6T272 16Q261 23 251 26T230 32Q221 34 212 37T197 49T186 71T182 109Q182 159 180 208T176 309Q174 358 172 407T170 506Q170
532 173 561Q191 541 203 528T232 495Q289 432 348 367T467 237T590 111T717 -4Q723 -8 729 -6T737 2Q750 168 749 335T747 669Q747 686 762 692T794 703Q797 704 800 707T807 711Z" />
<glyph unicode="O" glyph-name="O" horiz-adv-x="832" d="M805 349Q805 422 783 496T714 631T598 729T434 767Q420 767 405 766T375 761Q281 741 215 708T107 624T46 506T27 350Q27 306 43 262T86 178T149 102T227 42T312 1T397 -14Q403 -14 412 -14Q422 -14 431
-14T449 -12T464 -10Q534 6 596 35T704 108T778 212T805 349ZM704 351Q704 288 686 231T634 130T548 62T430 36Q359 36 304 68T210 153T153 270T133 400Q133 464 151 520T205 619T292 686T411 711Q482 711 536 679T628 596T685 481T704 351Z" />
<glyph unicode="P" glyph-name="P" horiz-adv-x="536" d="M513 564Q513 625 491 660T434 714T354 737T263 742H182Q167 742 152 741T121 741Q104 742 88 742Q73 742 56 742H35Q27 742 24 738T24 729Q29 718 40 716T64 711Q71 710 78 709T90 703T99 689T103 665V107Q103
82 102 67T95 43T77 29T44 20Q34 18 34 11T45 2Q106 -1 166 0T287 1Q294 1 297 4T298 13Q293 24 283 25T259 28Q251 29 241 30T226 37Q224 39 221 50T216 74T211 98T209 114V689Q223 694 239 698T272 702Q307 702 334 686T381 643T410 584T420 518Q420 445 379
404T263 363Q258 363 253 363Q248 363 243 364Q238 364 235 361T231 352T231 342T238 336Q265 328 296 328Q343 328 383 348T452 402T497 478T513 564Z" />
<glyph unicode="Q" glyph-name="Q" horiz-adv-x="836" d="M1441 -103L1430 -87Q1381 -107 1330 -118T1224 -129Q1148 -129 1074 -111T926 -62T784 6T649 83Q727 142 769 229T811 412Q811 494 781 561T698 677T574 752T423 779Q340 779 268 750T143 668T58 544T27
390Q27 304 55 232T134 109T257 29T417 0Q440 0 461 5T502 16Q519 21 533 25T559 30H564Q584 22 607 11T650 -12Q661 -18 676 -26T703 -39Q755 -64 812 -89T929 -133T1049 -165T1170 -178Q1243 -178 1311 -159T1441 -103ZM696 406Q696 347 681 293T636 192T563
109T465 53Q392 62 331 97T226 185T158 305T133 445Q133 509 153 561T211 650T301 707T416 727Q483 727 535 701T623 630T677 528T696 406Z" />
<glyph unicode="R" glyph-name="R" horiz-adv-x="744" d="M768 3L762 20Q724 14 687 33T615 86T547 162T484 245Q466 269 449 293T415 334Q437 355 457 380T494 435T520 494T530 556Q530 563 530 571T527 584Q515 634 490 664T431 711T356 733T273 739H220Q211
739 203 739T185 738Q169 738 154 738T122 738H56H38Q31 738 28 735T28 726Q31 716 41 713T65 709Q72 708 79 707T92 701T102 686T106 659V105Q106 81 105 66T99 41T81 27T47 18Q37 16 37 9T48 0Q109 -3 170 -3Q231 -3 292 -3Q300 -3 303 2T300 12Q291 20 280 22T257
25Q252 26 244 27T230 30Q227 32 224 43T218 67T214 93T212 110V296Q220 297 229 297Q239 297 247 297Q268 297 294 293T339 273Q363 252 385 222T431 159Q454 126 478 94T531 37T593 -4T669 -20Q695 -20 720 -14T768 3ZM421 505Q421 487 419 468T410 431T395 398T371
371T335 358T296 356Q253 356 213 362V691Q240 700 269 700Q307 700 335 683T383 638T411 575T421 505Z" />
<glyph unicode="S" glyph-name="S" horiz-adv-x="440" d="M418 199Q418 235 405 266T369 324T319 377T262 426Q238 447 215 467T173 508T143 553T132 602Q132 627 141 647T165 683T201 706T245 714Q269 714 289 707T326 685T350 651T359 606Q359 599 367 597T380
600Q394 619 396 647T398 703V739Q398 746 390 748Q344 761 291 761Q253 761 208 751T124 720T59 665T32 586Q32 555 45 526T81 467T131 410T189 354V355Q215 329 240 304T284 255T316 205T328 155Q328 129 316 108T284 72T240 49T193 41Q167 41 143 49T100 72T71
108T62 157L63 173Q63 177 60 179T52 181Q48 181 45 180T40 174Q38 166 36 157T32 136Q28 122 25 108T22 78Q22 52 34 34T66 6T108 -9T152 -14Q195 -14 242 1T328 45T392 112T418 199Z" />
<glyph unicode="T" glyph-name="T" horiz-adv-x="676" d="M650 717V739Q650 744 646 746T636 747T625 746T613 743Q605 741 596 739T580 736H152Q146 736 135 737T111 742T87 748T70 756Q65 758 60 757T52 750Q50 742 49 734T44 717Q37 695 31 674T25 634Q25 629
25 626T27 618Q29 611 37 611T49 616Q61 642 83 662T134 683H289V100Q289 76 288 62T280 39T262 26T229 17Q219 15 220 8T231 0Q292 -2 352 -1T474 0Q481 0 484 3T484 12Q479 22 469 24T445 27Q436 28 426 30T406 42Q405 43 403 53T400 75T397 98T395 113V681Q402
680 410 680Q419 680 427 680Q435 680 446 680T467 682Q477 683 486 683T506 684Q548 684 577 669T616 608Q618 601 627 601Q637 601 639 608Q645 634 647 661T650 717Z" />
<glyph unicode="U" glyph-name="U" horiz-adv-x="777" d="M749 722L748 740Q694 744 641 743T534 741Q529 741 525 739T522 732Q524 721 539 718T568 713Q574 712 577 712T583 712Q596 707 600 693T604 663Q604 639 604 612Q604 585 604 558T605 503Q605 476 605
453Q606 400 606 348Q606 296 606 242Q606 197 591 160T548 97T483 57T402 42Q359 42 323 56T260 96T218 158T203 239Q203 293 203 346T203 453T204 560Q204 613 204 667Q204 697 219 707T262 720Q272 721 272 729Q272 737 262 738Q212 743 163 740T65 738L27 739Q22
739 18 737T15 730Q17 719 32 715T61 710Q67 709 70 709T76 709Q89 704 93 690T97 660V263Q97 259 98 250T101 229T105 208T109 194Q126 149 155 111T222 45T305 2T401 -14Q467 -14 520 10T610 75T668 171T688 289V667Q688 696 705 707T749 722Z" />
<glyph unicode="V" glyph-name="V" horiz-adv-x="842" d="M806 723L804 741Q751 744 698 744Q646 744 594 741Q585 740 584 733T591 723Q591 723 596 723T609 720Q620 718 631 716T642 709Q642 676 625 618T581 491T525 353T470 225Q462 207 455 191T442 161Q434
181 428 197T416 228T404 259T389 296Q349 397 310 498T245 708Q252 716 256 720T269 724L287 727Q297 727 298 736T289 745H159H120Q99 745 79 745T39 745Q30 745 27 739T32 729Q43 721 52 719T73 713Q87 710 100 704T121 683H120Q156 611 188 531T250 369Q286
272 324 176T404 -8Q406 -11 410 -12T420 -13Q425 -13 429 -12T435 -7Q479 85 519 182T599 372L646 483Q651 493 656 506T668 534Q677 555 686 579T706 626T726 668T745 700Q752 708 762 711T785 717L806 723Z" />
<glyph unicode="W" glyph-name="W" horiz-adv-x="1076" d="M1038 737Q1015 745 991 741T941 737Q912 737 883 740T825 740Q816 739 816 732T824 722Q826 721 829 721Q833 721 837 720Q851 718 864 715T878 698Q878 646 867 579T840 441T804 301T767 177Q759 199
753 217T740 253T728 290T714 334Q679 439 642 544T562 737Q558 742 551 742Q544 742 541 736Q523 690 500 631T453 510T407 389T367 283T338 209T327 180Q327 180 322 206T309 276T290 375T271 489T252 604T238 706Q244 711 251 713T267 718Q272 719 276 720T289
724Q298 726 297 733T286 741Q225 743 164 744T42 745Q33 745 30 740T35 730Q51 719 72 716Q81 714 90 711T107 699L105 700Q106 698 109 692T115 678T120 666T122 659Q148 589 165 509T198 347Q214 264 237 180T293 -7Q297 -12 304 -12T315 -7Q329 25 345 65T377
147T408 229T436 302Q459 363 484 427T534 552Q552 504 564 464T594 375Q626 278 663 178T745 -7Q748 -12 756 -12Q764 -12 766 -6Q797 68 818 142T860 290Q863 301 865 314T872 343Q882 385 895 437T923 541T952 634T980 699Q986 709 992 714T1010 719Q1015 719
1021 719T1033 719L1038 737Z" />
<glyph unicode="X" glyph-name="X" horiz-adv-x="752" d="M717 19Q685 27 656 53T601 116T550 194T503 278Q495 293 486 310T466 344T445 376T427 404Q440 421 454 444T483 494Q504 529 529 567T581 638T634 692T685 716Q695 717 695 724T687 734Q663 741 637
742T585 744Q559 744 534 743T483 739Q473 738 473 731T481 721Q496 718 510 709T524 683Q524 674 517 660T499 628T474 590T445 550Q429 527 414 506T388 467Q377 486 363 509T333 555Q320 574 308 594T286 631T270 664T264 690Q264 704 274 713T298 726Q307 729
306 736T294 744H153Q129 744 103 743T56 734Q47 732 48 725T58 716Q91 710 118 688T170 635T214 566T255 491Q270 462 286 433T320 379Q308 363 293 335T260 277Q236 235 210 191T155 109T97 46T37 19Q27 18 27 10T38 2H67Q111 2 154 3T242 6Q251 7 252 13T246
22Q236 29 234 28T227 27Q222 28 219 29T211 35Q212 53 223 79T251 134T287 195T323 255Q334 272 343 287T360 316L370 301Q388 273 413 231T462 148T502 76T518 38Q518 27 511 21Q505 16 508 11T519 6Q543 6 567 6T616 4T664 3T714 2L717 19Z" />
<glyph unicode="Y" glyph-name="Y" horiz-adv-x="773" d="M739 722L736 739Q713 741 689 742T639 743Q616 743 594 742T548 739Q538 738 537 731T545 722Q554 718 560 711T567 692Q567 680 559 660T537 617T507 569T477 525Q469 514 462 503T449 484Q436 462 423
438T398 389Q394 394 393 396T385 409Q365 443 338 490T285 582T241 661T223 704Q223 710 227 714T236 722Q242 726 245 729Q250 734 248 739T237 744Q186 744 137 744T37 739Q27 738 27 731T35 721Q52 716 80 688T142 618T209 527T270 431T315 347T333 291V88Q333
79 332 68T326 47T315 31T298 24Q292 24 285 27L278 9Q303 3 330 2T385 0Q420 0 455 2T524 6Q534 7 533 15T522 23Q487 21 464 35T440 87V306Q440 328 456 365T498 446T557 536T623 621T687 687T739 722Z" />
<glyph unicode="Z" glyph-name="Z" horiz-adv-x="630" d="M600 163Q600 170 592 172T578 168Q568 151 554 132T522 97T484 71T445 60L189 59Q185 59 180 59Q175 59 172 58Q167 57 163 57T154 57Q185 105 216 149T281 241Q364 361 446 484T592 727Q596 732 593
736T581 740H176Q155 740 131 743T85 752Q72 754 70 745L67 731Q59 695 54 659T47 585Q46 578 53 576T66 578L75 587Q90 602 106 619T139 652T176 678T215 688H433Q436 688 441 688Q446 688 448 689Q452 690 455 690Q459 690 462 690Q427 635 390 580T316 471Q240
358 167 246T26 17Q22 12 25 9T36 5Q163 3 287 2T540 1Q554 1 567 1Q581 1 595 2L594 19H578Q590 56 594 91T600 163Z" />
<glyph unicode="[" glyph-name="bracketleft" horiz-adv-x="217" d="M195 15Q200 19 198 23T189 30Q184 32 176 32T160 34Q149 35 137 37T116 42T100 52T93 67V653Q93 674 109 680T146 689Q158 691 169 693T191 700L186 716H30Q18 716 18 707V19Q18 15 21 13T30
10Q57 9 84 9T139 8Q144 8 152 8Q161 8 169 8T185 10T195 15Z" />
<glyph unicode="\" glyph-name="backslash" horiz-adv-x="479" d="M454 84Q455 86 454 88T453 91Q378 209 305 325T158 560Q138 592 118 625T77 690Q75 692 71 693T63 693L27 678L23 666Q116 511 209 359T399 53Q401 51 405 50T412 49Q424 52 437 61T454 84Z" />
<glyph unicode="]" glyph-name="bracketright" horiz-adv-x="224" d="M205 19V707Q205 716 193 716H34Q24 716 22 710T29 700Q46 692 72 689Q92 686 110 679T128 652V72Q128 49 111 44T73 37Q59 36 47 34T25 27Q17 24 19 17T31 10H193Q205 10 205 19Z" />
<glyph unicode="_" glyph-name="underscore" horiz-adv-x="415" d="M432 -244V-206Q432 -198 420 -198H20Q8 -198 8 -206V-244Q8 -253 20 -253H420Q432 -253 432 -244Z" />
<glyph unicode="`" glyph-name="grave" horiz-adv-x="239" d="M212 748Q203 753 191 762T168 780Q145 797 122 812T75 828Q41 828 22 802Q19 798 19 794T26 788Q31 786 37 785T48 781Q88 768 126 753T207 732L212 748Z" />
<glyph unicode="a" glyph-name="a" horiz-adv-x="680" d="M644 61V79Q622 81 601 88T568 118Q530 187 499 260T436 406L392 509V508Q390 511 388 516T383 529V528Q378 539 372 553T359 579T345 602T331 615Q320 618 316 611Q286 541 257 471T198 330Q178 282 157
232T115 133Q110 124 102 113T83 94T62 81T41 80L37 62L213 59Q223 59 223 67T214 77Q204 79 191 82T178 97Q178 106 184 127T201 174T221 224T239 265H400Q421 218 440 175T479 85L470 74Q464 69 466 64T477 59Q495 58 512 58T547 57Q572 57 596 58T644 61ZM382
308H255Q274 353 287 392T318 476L382 308Z" />
<glyph unicode="b" glyph-name="b" horiz-adv-x="481" d="M458 217Q458 247 448 271T419 314T378 346T328 367Q354 390 376 421T399 487Q399 521 380 545T331 584T269 605T209 612Q190 612 171 611T134 607Q115 605 98 604T63 603Q57 603 51 603T37 605Q28 606
27 598T34 588Q41 587 51 584T69 576T83 563T89 547V141Q89 123 87 112T80 95T65 85T40 77Q31 75 32 67T43 59Q70 59 101 59T159 57Q188 56 216 56Q245 56 274 56V57H276Q284 57 290 57Q297 57 302 59H301Q331 64 359 77T409 111T444 158T458 217ZM311 477Q311
429 285 404T213 380L182 381V568Q202 573 219 573Q259 573 285 546T311 477ZM371 200Q371 176 363 156T339 122T304 99T261 91Q251 91 238 94T212 104T191 121T182 144V339L200 340Q231 342 261 334T316 308T356 263T371 200Z" />
<glyph unicode="c" glyph-name="c" horiz-adv-x="612" d="M588 190L565 194Q537 142 491 116T388 90Q333 90 284 110T197 166T137 250T115 356Q115 411 135 452T189 522T268 564T364 578Q395 578 425 571T479 549T522 509T546 451Q548 444 557 444Q567 444 569
451Q575 484 580 518T586 587Q586 595 575 595Q553 597 532 599T488 605Q459 609 430 612T369 615Q344 615 312 612T246 602T183 583T133 553Q85 510 55 448T24 321Q24 260 49 210T115 124T211 69T324 49Q380 49 442 61T557 90Q561 92 563 96Q572 116 579 142T588
190Z" />
<glyph unicode="d" glyph-name="d" horiz-adv-x="678" d="M653 336Q653 350 653 364Q653 379 651 393Q646 437 613 476T533 543T436 588T345 605Q324 605 300 604T254 602Q210 599 167 599Q150 599 130 600T92 602Q78 603 65 603T37 604Q30 604 27 601T26 592Q29
586 37 584T55 579Q67 577 79 572T91 547V141Q91 107 83 94T44 76Q34 74 35 66T46 58Q77 59 112 57T179 53Q208 51 237 50T296 48Q367 48 432 63T546 112T624 201T653 336ZM562 308Q562 248 540 207T481 139T395 100T293 88Q268 88 248 90T214 100T192 124T184
168V554Q204 560 224 562T264 564Q323 564 377 548T472 501T537 421T562 308Z" />
<glyph unicode="e" glyph-name="e" horiz-adv-x="422" d="M400 155Q401 158 398 160T390 163T382 163T377 158Q368 123 341 108T282 92Q256 92 227 102T182 134V328H195Q207 328 225 328Q243 328 261 327T295 324T315 317Q318 315 321 307T328 290Q329 285 329
283T340 273Q345 269 351 271T358 278Q360 292 362 304T366 328Q368 341 369 359T373 390Q374 395 370 398T358 400Q352 398 346 391T331 380H332Q323 377 315 374T302 370H182V561H200Q208 561 216 561T231 562Q239 562 246 562T262 563Q276 563 290 561T315 554T333
538T341 511Q342 503 352 503Q362 503 364 510Q366 516 367 522T370 535Q374 551 378 567T384 602Q385 607 380 610T368 611Q354 606 313 604T222 602Q187 602 153 602T90 604Q72 604 58 604T34 605Q25 605 22 599T27 589Q35 584 43 582T60 578Q71 576 80 571T90
548V138Q90 111 81 95T44 77Q35 77 35 69T43 59Q78 57 114 57T186 58Q202 58 218 58T250 59Q257 59 274 59T311 58T348 57Q365 57 371 59L379 63L400 155Z" />
<glyph unicode="f" glyph-name="f" horiz-adv-x="416" d="M394 602L378 611Q368 606 357 605T335 603H222Q174 603 127 603Q81 603 33 605Q24 605 23 598T29 589Q37 585 44 583T60 578Q71 576 80 570T90 545V138Q90 119 89 108T82 91T68 82T42 77Q33 75 34 67T44
59Q70 58 95 58T147 57Q172 57 197 57Q222 57 247 59Q257 60 256 68T245 77Q207 75 195 89T182 141V326Q187 325 191 325Q196 325 201 325Q210 325 218 325T234 327Q243 328 251 328T267 329Q295 329 314 319T333 277Q333 271 339 269T351 270Q359 275 363 287T370
314T372 343T373 369V381Q373 387 366 389T353 388Q348 383 338 377T323 370H182V553Q195 553 202 554T223 557Q238 559 253 560T282 562Q310 562 330 552T351 509Q351 503 357 501T369 501Q375 505 379 513T386 532T390 555T392 577Q392 580 392 585T393 594T394
601Q394 604 394 602Z" />
<glyph unicode="g" glyph-name="g" horiz-adv-x="671" d="M636 314L635 331Q586 333 538 333T439 334Q430 334 428 327T434 317Q448 311 463 308Q474 305 485 300T496 280V119Q476 103 451 99T401 94Q346 94 294 113T202 166T138 249T113 357Q113 411 135 452T193
522T276 565T372 580Q401 580 430 574T484 555T527 519T551 465Q553 460 558 459T568 459Q576 462 580 480T587 519T590 560T591 587Q591 595 581 595Q563 597 545 599T509 604Q476 609 439 612T366 616Q303 616 242 601T133 552T55 468T25 345Q25 283 47 231T108
139T200 77T314 49Q333 48 351 48T388 47Q412 47 438 48T489 54T539 66T583 87Q585 88 586 90T588 95V278Q588 297 604 304T636 314Z" />
<glyph unicode="h" glyph-name="h" horiz-adv-x="704" d="M674 71Q665 78 656 79T637 81Q632 81 627 81T616 83Q613 84 611 92T606 109T603 127T602 140V545Q602 568 616 574T650 583Q660 585 660 592T649 600Q601 603 552 604T454 605Q441 605 443 595Q445 584
453 583T474 580Q480 580 486 579T498 574T507 563T511 544V379H183V545Q183 564 198 572T230 582Q240 582 240 590T231 599Q183 603 134 603T37 604Q29 604 26 600T27 591Q32 583 40 581T59 578Q70 577 81 572T92 544V138Q92 119 91 108T84 91T70 82T44 76Q34
74 35 66T46 58Q72 57 97 57T148 56Q173 56 197 56T248 58L247 76Q209 74 196 88T183 140V337H511V138Q511 130 510 120T505 99T496 83T482 76Q479 76 471 80L460 64Q474 57 500 56T543 55H593Q611 55 629 55T667 55L674 71Z" />
<glyph unicode="i" glyph-name="i" horiz-adv-x="269" d="M240 70Q232 77 224 78T204 80Q199 80 193 81T184 83Q182 86 179 94T174 111T171 128T169 140V544Q169 568 183 574T217 583Q226 585 226 592T216 600Q193 602 171 600T126 598Q103 598 79 600T31 600Q21
599 21 592T30 583Q48 581 64 573T81 544V137Q81 129 80 119T75 99T67 83T53 76Q51 76 48 75T39 75Q30 77 26 68T31 55Q38 52 50 52T76 52T102 54T122 55L160 54Q179 53 196 54T232 54L240 70Z" />
<glyph unicode="j" glyph-name="j" horiz-adv-x="302" d="M272 581L271 599Q232 601 193 600T116 599H77Q69 599 66 595T67 586Q74 576 83 576Q93 576 104 576Q114 576 122 572T131 542V114Q131 70 123 40T104 -13T78 -49T52 -73Q41 -82 33 -92T21 -111Q19 -117
24 -120T37 -122Q71 -107 104 -85T164 -34T206 30T223 106V542Q223 565 237 571T272 581Z" />
<glyph unicode="k" glyph-name="k" horiz-adv-x="667" d="M636 59L630 76Q597 75 559 95T480 146T399 214T323 287Q303 307 284 325T248 358Q267 373 284 389T324 429Q351 454 379 480T435 528T492 565T547 582Q557 583 557 590Q557 598 547 599Q526 601 504 601Q483
601 462 601Q443 601 425 601T388 603Q380 603 377 599T379 589Q383 585 383 574Q383 563 370 546T335 507T289 464T240 420Q225 406 211 394T185 370Q184 413 184 455T183 537Q183 556 198 568T230 582Q239 582 239 590T231 599Q182 602 134 602T37 603Q29 603
26 599T27 590Q32 582 40 580T59 577T80 571T91 543V137Q91 118 90 107T83 90T69 80T43 75Q34 73 34 65T44 57Q95 55 144 55T243 54Q253 54 254 61T248 71Q236 77 225 78T206 81Q200 82 196 83T189 89T185 106T183 139V313Q204 296 218 281T259 239Q293 205 330
170T406 107T484 60T562 41Q582 41 600 45T636 59Z" />
<glyph unicode="l" glyph-name="l" horiz-adv-x="448" d="M425 161Q425 168 416 169T402 165Q383 130 349 111T277 92Q259 92 242 97T211 112T189 137T180 172V545Q180 563 192 572T222 580H234Q243 580 244 587T237 597Q216 603 194 604T149 605Q134 605 120
605T90 604H34Q27 604 24 600T23 591Q26 585 36 583T56 579Q67 578 77 573T88 544V138Q88 112 79 95T43 77Q33 77 33 69T42 59Q91 56 143 56Q163 56 184 56T225 57Q249 58 272 58Q296 58 320 58Q343 58 366 58T413 55L416 73Q413 74 412 74T408 74Q418 92 420 111T424
151Q424 154 424 156T425 161Z" />
<glyph unicode="m" glyph-name="m" horiz-adv-x="877" d="M842 73Q827 80 822 80T808 81Q796 83 784 87T762 105Q753 117 747 149T735 220T726 299T719 371Q717 385 717 395T715 413Q703 510 688 608Q687 614 680 615T667 612Q647 583 630 554T598 495Q593 486
587 475T576 455Q561 426 546 398T515 340Q493 298 472 257T427 174Q418 189 408 209T377 267Q350 315 319 372T259 479T207 567T171 614Q165 618 159 616T151 608T149 592T146 568Q142 536 137 490T126 393T114 291T101 197T90 126T82 91Q78 83 70 82T53 79Q45
79 37 77Q28 75 28 68T38 59Q81 57 123 56T209 55Q218 55 220 62T214 72Q197 80 191 81T179 85Q173 87 170 88T165 94T163 106T162 128V144Q162 195 168 247T183 351Q186 370 189 388T194 426Q203 411 208 400T219 379T229 358T243 331Q260 298 278 263T318 192T361
124T409 61Q414 57 419 57T428 63Q444 91 459 119T489 176Q523 240 556 303T628 429Q629 412 630 401T633 380T637 358T641 329Q648 274 654 219T660 110Q660 100 660 91T657 74Q655 69 658 66T667 62Q752 56 838 56L842 73Z" />
<glyph unicode="n" glyph-name="n" horiz-adv-x="720" d="M687 584L683 601Q647 603 611 604T538 605L502 604Q494 604 491 598T495 589Q507 582 526 580Q533 579 540 578T553 572T563 558T567 532V471Q567 455 567 440T566 409Q566 384 567 356T570 303Q571 272
572 243T572 182Q460 292 347 399T119 613Q117 615 113 615T105 614Q100 610 95 605T90 591V119Q90 99 78 89T49 80H37Q28 80 27 72T34 62Q55 57 77 56T123 55H158Q175 55 193 55T228 55Q237 55 240 61T235 71Q226 78 216 79T197 83Q190 84 184 86T172 93T163 108T160
136Q160 174 159 211T156 285Q154 323 153 360T151 435Q151 445 151 454Q151 463 152 472L204 421H203Q299 324 398 229T610 49Q616 46 622 47T629 55Q635 118 637 180T639 307Q639 335 639 369T638 433Q637 464 637 494Q637 525 637 557Q637 568 649 573T673 581H672Q678
583 682 583T687 584Z" />
<glyph unicode="o" glyph-name="o" horiz-adv-x="700" d="M675 314Q675 376 650 432T581 530T482 597T363 622Q300 622 240 603T132 548T55 458T25 337Q25 275 52 222T123 129T224 68T342 45Q402 45 461 62T568 113T645 197T675 314ZM586 316Q586 265 570 223T525
150T454 103T361 86Q306 86 261 107T184 165T133 250T115 351Q115 403 132 444T179 515T252 561T345 577Q399 577 443 556T519 499T568 416T586 316Z" />
<glyph unicode="p" glyph-name="p" horiz-adv-x="456" d="M434 471Q434 516 416 542T367 582T300 600T226 604Q215 604 206 604T187 603H156Q145 603 136 603T115 604H51H34Q26 604 23 600T24 591Q29 583 38 581T57 578Q68 577 78 573T89 547V138Q89 119 88 108T81
91T67 82T41 76Q31 74 31 66T42 58Q93 56 143 55T245 54Q252 54 255 58T255 67Q251 75 242 76T220 80Q215 81 207 81T194 84Q192 86 190 94T186 111T182 128T180 140V560Q192 564 204 566T231 569Q258 569 280 558T319 529T344 487T353 436Q353 407 343 385T316
348T275 325T224 317H205Q195 317 194 310T203 300Q214 298 226 296T251 294Q287 294 320 308T379 346T419 402T434 471Z" />
<glyph unicode="q" glyph-name="q" horiz-adv-x="713" d="M1214 -40L1204 -25Q1163 -39 1120 -47T1032 -55Q970 -55 909 -42T789 -7T672 42T559 98Q618 140 653 203T689 340Q689 406 661 456T587 541T483 593T365 611Q303 611 243 592T136 535T61 444T32 323Q32
253 58 199T130 109T234 54T360 35Q377 35 393 38T424 46Q439 51 452 54T478 57H483Q500 51 517 43T553 27Q564 22 575 17T597 6Q643 -14 690 -32T787 -64T886 -87T987 -96Q1110 -96 1214 -40ZM590 335Q590 289 576 248T537 174T476 117T397 79Q343 85 294 108T208
169T148 256T125 363Q125 414 144 452T195 516T269 555T359 568Q409 568 451 551T524 503T572 429T590 335Z" />
<glyph unicode="r" glyph-name="r" horiz-adv-x="677" d="M644 59L638 76Q608 72 578 86T519 125T463 179T412 238Q397 256 383 272T353 304Q370 319 386 337T416 377T438 421T447 467Q447 513 426 540T371 581T298 599T220 603Q209 603 200 603T180 602H159Q143
602 129 602Q115 602 99 603Q87 604 75 604Q63 604 52 604H37Q29 604 26 600T27 591Q32 583 40 581T59 578T80 572T91 543V137Q91 118 90 107T83 89T69 81T43 76Q34 74 34 67T44 58Q95 55 145 55T247 54Q256 54 259 60T254 70Q246 76 237 77T218 80Q213 81 206
81Q200 81 197 83Q195 84 193 91T188 108T185 126T183 139V271Q191 272 193 272T204 271Q226 271 252 268T296 249Q315 233 332 213T366 171Q385 147 405 124T448 83T499 54T562 43Q606 43 644 59ZM353 430Q353 379 328 349T254 319Q237 319 219 320T183 323V564Q205
570 229 570Q257 570 280 559T319 528T344 484T353 430Z" />
<glyph unicode="s" glyph-name="s" horiz-adv-x="377" d="M356 202Q356 228 344 251T313 295T270 334T223 371Q205 385 186 400T152 431T127 465T117 499Q117 518 125 533T146 558T175 573T209 579Q226 579 242 574T272 559T294 535T303 502Q303 495 310 493T324
496Q336 509 337 529T339 570V598Q341 606 330 608Q289 617 246 617Q219 617 182 611T110 589T53 549T29 487Q29 464 40 443T71 400T113 357T161 316Q182 298 202 280T239 243T266 206T277 170Q277 150 266 135T238 110T202 95T166 89Q147 89 128 94T92 109T67
135T59 172V184Q59 188 56 190T48 192Q44 192 40 191T36 185Q35 168 30 157Q26 146 24 136T21 115Q21 94 32 81T60 59T96 48T131 45Q163 45 202 55T276 86T333 135T356 202Z" />
<glyph unicode="t" glyph-name="t" horiz-adv-x="573" d="M545 584V600Q545 611 532 609Q526 608 521 608T513 605H514Q506 603 498 601T485 599H128Q122 599 113 600T93 604T74 608T60 614Q55 616 50 615T43 608Q41 602 40 596T36 585Q31 570 26 553T21 523Q21
513 22 510Q24 504 32 503T44 508Q55 528 73 542T114 556H241V135Q241 117 239 107T232 90T217 82T192 77Q183 75 183 67T193 59Q244 57 294 56T396 55Q404 55 407 59T407 68Q403 76 394 78T373 81Q367 82 359 83T346 86H345Q343 87 341 94T338 111T335 129T333
141V555Q340 553 341 554T351 555Q361 555 371 555Q381 555 390 556T407 557Q415 557 423 557Q455 557 480 548T513 503Q515 496 524 496Q534 496 536 503Q545 543 545 584Z" />
<glyph unicode="u" glyph-name="u" horiz-adv-x="672" d="M637 582L636 599Q592 602 548 603T459 604Q445 604 447 594Q449 583 458 582T479 579Q485 578 491 577T503 573T511 562T515 543Q515 504 515 465Q515 426 516 388Q517 349 517 310Q517 271 517 233Q517
197 503 170T466 125T412 97T349 87Q317 87 288 96T235 123T198 167T184 229Q184 268 184 307T185 387V544Q185 566 199 572T233 581Q242 582 242 589Q242 597 233 598Q150 604 68 604H37Q23 604 25 594Q27 583 35 582T56 579Q68 578 80 573T93 543V247Q93 241
94 233T96 216V217Q96 172 120 139T182 85T264 53T349 42Q398 42 442 58T518 103T570 174T589 267V544Q589 564 604 572T637 582Z" />
<glyph unicode="v" glyph-name="v" horiz-adv-x="711" d="M676 583L674 600Q651 601 630 601T587 602Q565 602 544 602T501 600Q491 600 491 591Q491 583 501 583Q502 583 504 583T508 582Q516 581 527 579T538 575Q538 551 524 509T488 418T442 317T396 224L373
178Q367 193 362 204T353 225T343 247T331 272Q297 345 265 420T211 573Q217 576 227 583T244 589Q253 588 254 597T247 606Q213 606 190 605T140 603H103Q86 603 71 603T38 603Q29 603 26 597T31 587Q39 582 47 580T64 576Q76 573 86 569T103 553Q110 543 116
529T131 499Q135 491 138 484T145 471H144Q159 441 173 407T203 338Q235 263 270 187T348 47Q352 43 358 43T369 48Q406 119 440 189T509 332Q517 350 527 370T545 407Q550 415 554 425T563 446Q570 461 578 478T594 512T611 542T626 565Q632 571 641 574T660 580Q665
581 668 581T676 583Z" />
<glyph unicode="w" glyph-name="w" horiz-adv-x="982" d="M945 596Q925 601 905 600T862 599Q839 599 815 600T767 600Q757 599 757 591T768 583Q770 583 771 583T775 582Q783 581 796 579T809 572Q809 543 800 504T776 422T744 334T710 249Q703 233 697 219T686
191Q679 208 674 222T663 249T653 277T641 309Q613 381 583 454T515 596Q511 601 504 601Q498 601 495 596Q450 496 407 395T319 193Q317 201 315 206T312 215T309 223T304 235Q274 316 246 401T206 572Q211 577 217 577T229 579Q239 580 247 583Q256 585 256 592T245
600Q194 602 143 603T41 604Q32 604 29 599T33 589Q41 583 49 581T67 577Q74 575 81 574T93 566Q101 556 112 530T137 468T164 392T191 312Q203 274 216 235T242 161T267 97T289 48Q293 43 300 43Q307 43 311 48Q338 104 362 159T411 272Q430 318 450 363T491 454Q506
418 516 392T541 330Q567 260 598 186T666 47Q670 42 677 42T687 48Q715 108 740 175T791 311Q799 332 806 352T822 395Q824 403 827 412T835 431Q848 465 863 501T898 566Q906 581 920 580L940 579Q950 578 951 585T945 596Z" />
<glyph unicode="x" glyph-name="x" horiz-adv-x="636" d="M603 73Q576 79 552 98T506 143T464 199T425 260Q411 285 395 309T363 354Q374 367 385 382T411 419Q429 445 449 473T490 524T532 562T575 580Q585 581 586 588T577 597Q557 602 535 603T491 604Q470
604 449 603T407 600Q397 599 396 592T405 583T427 575T440 557Q440 551 434 541T419 517T397 490T373 461Q359 444 348 430T328 403Q319 417 308 432T285 464Q264 494 245 521T226 562Q226 573 235 578T253 587Q261 589 260 596T249 604Q230 603 212 603T175 604H138Q116
604 94 603T51 597Q42 595 42 588Q42 582 52 580Q78 576 100 561T142 523T179 473T213 420Q223 403 240 377T269 334Q255 317 243 298T216 256Q196 226 175 194T130 136T83 92T35 73Q25 72 25 64T36 55H60Q96 55 133 55T207 58Q216 59 217 65T210 75Q202 79 192
79Q187 79 182 83Q185 96 195 116T219 158T250 204T280 248Q288 259 294 267T305 284Q313 272 326 253T353 213T382 170T408 130T427 100T434 84Q434 78 430 74Q423 69 425 64T437 58Q457 58 477 58T519 56Q539 55 559 55Q579 55 600 55L603 73Z" />
<glyph unicode="y" glyph-name="y" horiz-adv-x="654" d="M620 584L617 601Q597 602 577 602T537 603Q518 603 499 603Q481 603 461 601Q452 600 451 594T458 585Q465 582 470 577T475 564Q475 556 468 542T449 510T424 475T400 442Q386 426 380 416Q368 400 357
382T336 346L328 357Q310 381 287 415T242 483T207 541T192 573Q192 577 195 580T202 585Q208 589 210 590Q216 595 213 600T202 605Q160 605 119 604T35 601Q26 600 25 593T33 584Q46 581 70 561T121 510T177 444T229 374T266 313T281 271V122Q281 106 275 92T253
78Q245 78 242 79L235 62Q257 57 280 56T326 55Q355 55 383 56T441 59Q451 60 450 68T439 77Q414 76 394 84T373 122V281Q373 298 386 325T422 385T471 450T526 511T578 559T620 584Z" />
<glyph unicode="z" glyph-name="z" horiz-adv-x="535" d="M507 177Q508 184 499 186T485 182Q476 169 464 155T438 130T407 112T376 104L164 103Q161 103 157 103T150 102Q147 102 144 102T138 101Q164 136 189 168T241 234Q268 268 303 314T374 410T444 506T499
589Q503 593 500 597T489 602H152Q135 602 115 604T76 612Q65 614 61 605Q60 602 60 599Q60 597 59 594Q54 568 50 542T42 487Q41 480 48 478T61 480L70 489Q94 513 123 536T184 559Q230 560 275 560Q320 560 365 560Q368 560 371 560T378 561Q380 561 382 561T386
562Q353 517 322 477T257 392Q196 312 138 234T25 72Q20 67 23 63T35 58Q141 57 245 57T455 56H500Q510 56 510 65Q510 74 500 74H489Q497 100 501 126T507 177Z" />
<glyph unicode="{" glyph-name="braceleft" horiz-adv-x="291" d="M264 24Q241 34 227 53T206 97T196 150T193 205Q193 219 193 231Q193 244 194 257Q194 268 194 277T195 295Q195 304 191 317T181 343T166 368T147 388Q163 400 173 417T188 455T194 497T195 543Q195
568 195 593T202 638T221 673T261 694L259 711Q207 708 179 691T138 648T122 589T119 524Q119 501 118 480T111 440T95 410T63 395Q54 393 54 387T61 378Q74 372 82 370T97 366Q103 364 106 363T112 356T114 340T115 311V234Q115 196 119 161T138 96T181 43T257
7Q266 5 269 13T264 24Z" />
<glyph unicode="}" glyph-name="braceright" horiz-adv-x="258" d="M235 387Q230 393 222 394T204 398Q194 400 186 404T178 426Q178 436 178 447T179 469Q179 480 179 491T180 514Q180 550 176 584T156 647T113 693T36 716Q27 717 25 710T31 700Q34 697 36 696H34Q45
688 57 680T78 662T94 641T100 616Q100 608 100 599Q100 590 99 580Q98 567 98 553T97 525Q97 485 105 448T147 389Q137 381 129 369T114 342T104 315T100 294Q100 286 100 274Q100 263 101 253Q102 241 102 228Q102 215 102 201Q102 174 100 147T89 97T67 55T28
28Q19 25 22 17T34 11Q81 21 110 43T154 95T175 162T181 240V265Q181 274 181 283T180 304Q180 320 181 334T184 356Q187 365 194 368T210 371Q223 371 228 372L235 387Z" />
</font>
</defs>
</svg>
