<?xml version="1.0" standalone="no"?>
<!DOCTYPE svg PUBLIC "-//W3C//DTD SVG 20010904//EN"
 "http://www.w3.org/TR/2001/REC-SVG-20010904/DTD/svg10.dtd">
<svg version="1.0" xmlns="http://www.w3.org/2000/svg"
 width="260.000000pt" height="260.000000pt" viewBox="0 0 260.000000 260.000000"
 preserveAspectRatio="xMidYMid meet">
<metadata>
Created by potrace 1.11, written by Peter Selinger 2001-2013
</metadata>
<g transform="translate(0.000000,260.000000) scale(0.100000,-0.100000)"
fill="#000000" stroke="none">
<path d="M0 1300 l0 -1300 1300 0 1300 0 0 1300 0 1300 -1300 0 -1300 0 0
-1300z m670 -5 l0 -925 -130 0 -130 0 0 925 0 925 130 0 130 0 0 -925z m1145
460 c210 -44 373 -198 450 -426 30 -86 55 -230 55 -311 l0 -58 -536 0 -536 0
6 -37 c12 -66 63 -161 117 -218 94 -100 233 -146 377 -125 114 16 225 60 291
116 l32 27 50 -49 c28 -27 65 -67 82 -88 l31 -39 -44 -39 c-51 -43 -155 -97
-246 -126 -276 -89 -562 -31 -748 153 -109 107 -169 219 -200 367 -56 269 39
552 239 718 66 54 194 117 275 134 86 19 218 19 305 1z"/>
<path d="M1600 1529 c-110 -18 -225 -94 -283 -186 -23 -37 -67 -144 -67 -163
0 -6 153 -10 406 -10 l407 0 -7 43 c-17 106 -105 235 -192 280 -66 34 -179 49
-264 36z"/>
</g>
</svg>
