<svg xmlns="http://www.w3.org/2000/svg" xmlns:xlink="http://www.w3.org/1999/xlink" width="460" zoomAndPan="magnify" viewBox="0 0 345 97.5" height="130" preserveAspectRatio="xMidYMid meet" version="1.0"><defs><g/></defs><g fill="#db4a2b" fill-opacity="1"><g transform="translate(-3.781224, 71.988076)"><g><path d="M 6.265625 0 L 6.265625 -67.78125 L 24.859375 -67.78125 L 24.859375 0 Z M 6.265625 0 "/></g></g></g><g fill="#db4a2b" fill-opacity="1"><g transform="translate(22.016491, 71.988076)"><g><path d="M 31.125 -50.484375 C 40.164062 -50.484375 47.066406 -48.363281 51.828125 -44.125 C 56.597656 -39.882812 58.984375 -33.40625 58.984375 -24.6875 L 58.984375 -21.5 L 21.96875 -21.5 C 21.96875 -17.945312 22.757812 -15.265625 24.34375 -13.453125 C 25.9375 -11.648438 28.445312 -10.75 31.875 -10.75 C 34.988281 -10.75 37.28125 -11.398438 38.75 -12.703125 C 40.21875 -14.015625 40.953125 -15.765625 40.953125 -17.953125 L 58.984375 -17.953125 C 58.984375 -11.960938 56.707031 -7.285156 52.15625 -3.921875 C 47.613281 -0.554688 40.976562 1.125 32.25 1.125 C 23.09375 1.125 15.988281 -1.007812 10.9375 -5.28125 C 5.882812 -9.550781 3.359375 -16.019531 3.359375 -24.6875 C 3.359375 -33.15625 5.820312 -39.570312 10.75 -43.9375 C 15.675781 -48.300781 22.46875 -50.484375 31.125 -50.484375 Z M 31.875 -38.609375 C 26.019531 -38.609375 22.75 -35.832031 22.0625 -30.28125 L 40.203125 -30.28125 C 40.203125 -32.84375 39.46875 -34.867188 38 -36.359375 C 36.53125 -37.859375 34.488281 -38.609375 31.875 -38.609375 Z M 31.875 -38.609375 "/></g></g></g><g fill="#db4a2b" fill-opacity="1"><g transform="translate(79.03398, 71.988076)"><g><path d="M 35.625 -50.578125 C 37.050781 -50.578125 38.328125 -50.40625 39.453125 -50.0625 C 40.578125 -49.71875 41.140625 -49.515625 41.140625 -49.453125 L 41.140625 -33.84375 L 35.15625 -33.84375 C 31.289062 -33.84375 28.5 -32.84375 26.78125 -30.84375 C 25.070312 -28.851562 24.21875 -25.894531 24.21875 -21.96875 L 24.21875 0 L 5.609375 0 L 5.609375 -49.359375 L 20.84375 -49.359375 L 22.0625 -41.875 C 23.1875 -44.75 24.960938 -46.914062 27.390625 -48.375 C 29.816406 -49.84375 32.5625 -50.578125 35.625 -50.578125 Z M 35.625 -50.578125 "/></g></g></g><g fill="#db4a2b" fill-opacity="1"><g transform="translate(115.207127, 71.988076)"><g><path d="M 40.015625 -49.359375 L 61.703125 -49.359375 L 43.46875 -29.453125 L 62.171875 0 L 41.046875 0 L 30.65625 -16.921875 L 24.21875 -10.65625 L 24.21875 0 L 5.609375 0 L 5.609375 -67.875 L 24.21875 -67.875 L 24.21875 -30.46875 Z M 40.015625 -49.359375 "/></g></g></g><g fill="#db4a2b" fill-opacity="1"><g transform="translate(172.224616, 71.988076)"><g><path d="M 30.015625 -50.484375 C 37.546875 -50.484375 43.679688 -49.21875 48.421875 -46.6875 C 53.160156 -44.164062 55.53125 -40.070312 55.53125 -34.40625 L 55.53125 -15.140625 C 55.53125 -14.085938 55.78125 -13.21875 56.28125 -12.53125 C 56.78125 -11.84375 57.523438 -11.5 58.515625 -11.5 L 61.890625 -11.5 L 61.890625 -0.75 C 61.703125 -0.625 61.21875 -0.421875 60.4375 -0.140625 C 59.65625 0.140625 58.546875 0.421875 57.109375 0.703125 C 55.679688 0.984375 54.035156 1.125 52.171875 1.125 C 48.554688 1.125 45.578125 0.578125 43.234375 -0.515625 C 40.898438 -1.609375 39.296875 -3.117188 38.421875 -5.046875 C 36.054688 -3.179688 33.40625 -1.6875 30.46875 -0.5625 C 27.539062 0.5625 24.113281 1.125 20.1875 1.125 C 8.59375 1.125 2.796875 -3.488281 2.796875 -12.71875 C 2.796875 -17.507812 4.085938 -21.164062 6.671875 -23.6875 C 9.265625 -26.21875 12.988281 -27.945312 17.84375 -28.875 C 22.707031 -29.8125 29.066406 -30.28125 36.921875 -30.28125 L 36.921875 -32.71875 C 36.921875 -34.65625 36.25 -36.117188 34.90625 -37.109375 C 33.570312 -38.109375 31.847656 -38.609375 29.734375 -38.609375 C 27.796875 -38.609375 26.125 -38.265625 24.71875 -37.578125 C 23.320312 -36.890625 22.625 -35.800781 22.625 -34.3125 L 22.625 -33.9375 L 4.296875 -33.9375 C 4.234375 -34.25 4.203125 -34.6875 4.203125 -35.25 C 4.203125 -39.914062 6.429688 -43.617188 10.890625 -46.359375 C 15.347656 -49.109375 21.722656 -50.484375 30.015625 -50.484375 Z M 36.921875 -21.5 C 31.628906 -21.5 27.71875 -20.921875 25.1875 -19.765625 C 22.664062 -18.617188 21.40625 -17.078125 21.40625 -15.140625 C 21.40625 -12.023438 23.523438 -10.46875 27.765625 -10.46875 C 30.191406 -10.46875 32.320312 -11.117188 34.15625 -12.421875 C 36 -13.734375 36.921875 -15.359375 36.921875 -17.296875 Z M 36.921875 -21.5 "/></g></g></g><g fill="#db4a2b" fill-opacity="1"><g transform="translate(229.242105, 71.988076)"><g><path d="M 39.546875 -1.5 C 36.992188 5.414062 33.863281 10.664062 30.15625 14.25 C 26.445312 17.832031 21.253906 19.625 14.578125 19.625 C 10.523438 19.625 6.941406 19.066406 3.828125 17.953125 L 3.828125 6.828125 L 11.3125 6.828125 C 15.988281 6.828125 18.757812 4.550781 19.625 0 L 0 -49.359375 L 20 -49.359375 L 29.453125 -16.546875 L 30.109375 -16.546875 L 38.796875 -49.359375 L 57.125 -49.359375 Z M 39.546875 -1.5 "/></g></g></g><g fill="#db4a2b" fill-opacity="1"><g transform="translate(281.025132, 71.988076)"><g><path d="M 30.015625 -50.484375 C 37.546875 -50.484375 43.679688 -49.21875 48.421875 -46.6875 C 53.160156 -44.164062 55.53125 -40.070312 55.53125 -34.40625 L 55.53125 -15.140625 C 55.53125 -14.085938 55.78125 -13.21875 56.28125 -12.53125 C 56.78125 -11.84375 57.523438 -11.5 58.515625 -11.5 L 61.890625 -11.5 L 61.890625 -0.75 C 61.703125 -0.625 61.21875 -0.421875 60.4375 -0.140625 C 59.65625 0.140625 58.546875 0.421875 57.109375 0.703125 C 55.679688 0.984375 54.035156 1.125 52.171875 1.125 C 48.554688 1.125 45.578125 0.578125 43.234375 -0.515625 C 40.898438 -1.609375 39.296875 -3.117188 38.421875 -5.046875 C 36.054688 -3.179688 33.40625 -1.6875 30.46875 -0.5625 C 27.539062 0.5625 24.113281 1.125 20.1875 1.125 C 8.59375 1.125 2.796875 -3.488281 2.796875 -12.71875 C 2.796875 -17.507812 4.085938 -21.164062 6.671875 -23.6875 C 9.265625 -26.21875 12.988281 -27.945312 17.84375 -28.875 C 22.707031 -29.8125 29.066406 -30.28125 36.921875 -30.28125 L 36.921875 -32.71875 C 36.921875 -34.65625 36.25 -36.117188 34.90625 -37.109375 C 33.570312 -38.109375 31.847656 -38.609375 29.734375 -38.609375 C 27.796875 -38.609375 26.125 -38.265625 24.71875 -37.578125 C 23.320312 -36.890625 22.625 -35.800781 22.625 -34.3125 L 22.625 -33.9375 L 4.296875 -33.9375 C 4.234375 -34.25 4.203125 -34.6875 4.203125 -35.25 C 4.203125 -39.914062 6.429688 -43.617188 10.890625 -46.359375 C 15.347656 -49.109375 21.722656 -50.484375 30.015625 -50.484375 Z M 36.921875 -21.5 C 31.628906 -21.5 27.71875 -20.921875 25.1875 -19.765625 C 22.664062 -18.617188 21.40625 -17.078125 21.40625 -15.140625 C 21.40625 -12.023438 23.523438 -10.46875 27.765625 -10.46875 C 30.191406 -10.46875 32.320312 -11.117188 34.15625 -12.421875 C 36 -13.734375 36.921875 -15.359375 36.921875 -17.296875 Z M 36.921875 -21.5 "/></g></g></g><g fill="#db4a2b" fill-opacity="1"><g transform="translate(273.420729, 91.129343)"><g><path d="M 7.75 -4.5 L 6.953125 0 L 3.828125 0 L 4.640625 -4.609375 L 1.71875 -12 L 5.0625 -12 L 6.71875 -7.203125 L 9.84375 -12 L 13.296875 -12 Z M 7.75 -4.5 "/></g></g></g><g fill="#db4a2b" fill-opacity="1"><g transform="translate(284.757503, 91.129343)"><g><path d="M 7.875 -3.109375 L 4.109375 -3.109375 L 2.578125 0 L -0.75 0 L 5.578125 -12 L 9.640625 -12 L 11.734375 0 L 8.328125 0 Z M 7.53125 -5.546875 L 7.03125 -9.09375 L 5.28125 -5.546875 Z M 7.53125 -5.546875 "/></g></g></g><g fill="#db4a2b" fill-opacity="1"><g transform="translate(296.511598, 91.129343)"><g><path d="M 11.546875 -9.578125 L 4.4375 -2.4375 L 10.359375 -2.4375 L 9.9375 0 L 0.109375 0 L 0.515625 -2.359375 L 7.6875 -9.5625 L 2.28125 -9.5625 L 2.71875 -12 L 11.984375 -12 Z M 11.546875 -9.578125 "/></g></g></g><g fill="#db4a2b" fill-opacity="1"><g transform="translate(307.239768, 91.129343)"><g><path d="M 3.5 0 L 0.359375 0 L 2.484375 -12 L 5.625 -12 Z M 3.5 0 "/></g></g></g><g fill="#db4a2b" fill-opacity="1"><g transform="translate(312.021091, 91.129343)"><g><path d="M 10.03125 -2.640625 L 9.5625 0 L 0.359375 0 L 2.484375 -12 L 5.625 -12 L 3.96875 -2.640625 Z M 10.03125 -2.640625 "/></g></g></g><g fill="#db4a2b" fill-opacity="1"><g transform="translate(322.192843, 91.129343)"><g><path d="M 3.5 0 L 0.359375 0 L 2.484375 -12 L 5.625 -12 Z M 3.5 0 "/></g></g></g><g fill="#db4a2b" fill-opacity="1"><g transform="translate(326.974166, 91.129343)"><g><path d="M 16.203125 -12 L 14.09375 0 L 10.953125 0 L 12.53125 -8.796875 L 9.046875 0 L 5.40625 0 L 5.03125 -8.796875 L 3.5 0 L 0.359375 0 L 2.484375 -12 L 7.578125 -12 L 7.859375 -3.375 L 10.984375 -12 Z M 16.203125 -12 "/></g></g></g></svg>