<svg version="1.2" xmlns="http://www.w3.org/2000/svg" viewBox="0 0 512 146" width="512" height="146"><style>.a{fill:#83cd29}.b{fill:#404137}</style><path class="a" d="m471.1 52.6c-1.3 0-2.5 0.3-3.6 0.9l-33.9 19.5c-2.2 1.3-3.5 3.7-3.5 6.2v39.1c0 2.5 1.3 4.9 3.5 6.2l8.9 5.1c4.3 2.1 5.9 2.1 7.8 2.1 6.4 0 10-3.9 10-10.6v-38.6c0-0.5-0.4-0.9-1-0.9h-4.2c-0.6 0-1 0.4-1 0.9v38.6c0 3-3.1 6-8.2 3.5l-9.2-5.4c-0.3-0.2-0.5-0.5-0.5-0.9v-39.1c0-0.3 0.2-0.7 0.5-0.9l33.8-19.5q0.2-0.1 0.3-0.1 0.1 0 0.3 0 0.1 0 0.2 0 0.1 0 0.3 0.1l33.8 19.5c0.3 0.2 0.5 0.6 0.5 0.9v39.1c0 0.4-0.1 0.8-0.5 0.9l-33.8 19.5c-0.3 0.2-0.7 0.2-1.1 0l-8.7-5.1q-0.1-0.1-0.2-0.1-0.1-0.1-0.2-0.1-0.1 0-0.2 0.1-0.1 0-0.2 0.1c-2.4 1.3-2.9 1.5-5.1 2.3-0.6 0.2-1.4 0.5 0.3 1.4l11.3 6.7q0.4 0.2 0.9 0.4 0.4 0.2 0.8 0.3 0.5 0.1 0.9 0.2 0.5 0 1 0 0.4 0 0.9 0 0.4-0.1 0.9-0.2 0.4-0.1 0.8-0.3 0.5-0.2 0.9-0.4l33.9-19.5c2.2-1.3 3.5-3.7 3.5-6.2v-39.1c0-2.5-1.3-4.9-3.5-6.2l-33.9-19.5c-1.1-0.6-2.3-0.9-3.6-0.9z"/><path class="a" d="m480.1 80.5c-9.6 0-15.4 4.1-15.4 11 0 7.4 5.7 9.4 15 10.3 11.1 1.1 11.9 2.7 11.9 4.9 0 3.8-3 5.4-10.1 5.4-9 0-10.9-2.2-11.6-6.7-0.1-0.5-0.4-0.8-0.9-0.8h-4.4c-0.6 0-1 0.4-1 1 0 5.7 3.1 12.4 17.9 12.4 10.7 0 16.9-4.2 16.9-11.6 0-7.3-5-9.2-15.4-10.6-10.5-1.4-11.5-2.1-11.5-4.6 0-2 0.8-4.7 8.6-4.7 7 0 9.5 1.5 10.6 6.2 0.1 0.4 0.5 0.8 0.9 0.8h4.4c0.3 0 0.5-0.2 0.7-0.4 0.2-0.2 0.4-0.4 0.3-0.7-0.7-8.1-6-11.9-16.9-11.9z"/><path fill-rule="evenodd" class="b" d="m272.9 1.6l21.4 11.9q0.5 0.3 0.9 0.7 0.4 0.4 0.7 0.9 0.3 0.6 0.4 1.1 0.2 0.6 0.2 1.2v103.3q0 0.5-0.1 1.1-0.2 0.5-0.5 1-0.3 0.5-0.7 0.9-0.4 0.4-0.9 0.7l-35.9 20.7q-0.5 0.3-1 0.5-0.6 0.1-1.1 0.1-0.6 0-1.1-0.1-0.6-0.2-1.1-0.5l-35.9-20.7c-1.3-0.8-2.1-2.2-2.1-3.7v-41.5c0-1.5 0.8-3 2.1-3.8l35.9-20.7q0.5-0.3 1.1-0.4 0.5-0.2 1.1-0.2 0.5 0 1.1 0.2 0.5 0.1 1 0.4l9 5.2q0.2 0.1 0.4 0.1 0.2 0.1 0.4 0.1 0.2 0 0.4-0.1 0.2 0 0.3-0.1c0.5-0.3 0.8-0.8 0.8-1.3v-55.1q0-0.2 0-0.5 0.1-0.3 0.3-0.5 0.1-0.3 0.3-0.5 0.2-0.2 0.4-0.3 0.2-0.1 0.3-0.2 0.1 0 0.3 0 0.1-0.1 0.2-0.1 0.2 0 0.3 0c0.4 0 0.8 0 1.1 0.2zm-231.6 51.5c0.7 0 1.3 0.2 1.9 0.5l35.9 20.7q0.5 0.3 0.9 0.7 0.4 0.4 0.7 0.9 0.3 0.5 0.5 1.1 0.1 0.5 0.1 1.1l-0.1 55.6q0 0.3 0 0.6-0.1 0.2-0.3 0.5-0.1 0.2-0.3 0.4-0.2 0.2-0.5 0.4-0.2 0.1-0.5 0.2-0.2 0.1-0.5 0.1-0.3 0-0.6-0.1-0.3-0.1-0.5-0.2l-21.3-12.3c-1.3-0.8-2.2-2.2-2.2-3.7v-26q0-0.5-0.2-1.1-0.1-0.5-0.4-1-0.3-0.5-0.7-0.9-0.4-0.4-0.9-0.7l-9.1-5.3c-0.6-0.4-1.4-0.5-2.1-0.5q-0.3 0-0.6 0-0.3 0-0.5 0.1-0.3 0.1-0.6 0.2-0.2 0.1-0.5 0.2l-9 5.3c-1.4 0.8-2.2 2.2-2.2 3.7v26c0 1.5-0.9 2.9-2.2 3.7l-21.3 12.3q-0.3 0.1-0.6 0.2-0.2 0.1-0.5 0.1-0.3 0-0.6-0.1-0.2-0.1-0.5-0.2c-0.7-0.4-1.1-1.1-1.1-1.9v-55.6q0-0.6 0.1-1.1 0.1-0.6 0.4-1.1 0.3-0.5 0.7-0.9 0.4-0.4 0.9-0.7l35.9-20.7c0.6-0.3 1.3-0.5 2-0.5zm322.7 0.6q0.3 0 0.6 0.1 0.2 0 0.5 0.1 0.3 0.2 0.5 0.3l35.7 20.7c1.3 0.8 2.2 2.2 2.2 3.8v10q0 0.5-0.2 1.1-0.1 0.5-0.4 1-0.3 0.5-0.7 0.9-0.4 0.4-0.9 0.7l-21.5 12.5c-0.7 0.4-1.5 0.4-2.2 0q-0.2-0.1-0.4-0.3-0.2-0.2-0.4-0.5-0.1-0.2-0.2-0.5-0.1-0.3-0.1-0.6v-10.2q0-0.3 0-0.5-0.1-0.3-0.2-0.6-0.2-0.2-0.4-0.4-0.2-0.2-0.4-0.3l-11.3-6.5q-0.2-0.2-0.5-0.2-0.3-0.1-0.5-0.1-0.3 0-0.6 0.1-0.3 0-0.5 0.2l-11.2 6.5c-0.7 0.3-1.2 1.1-1.2 1.8v13c0 0.8 0.5 1.5 1.2 1.9l36.1 20.7q0.2 0.2 0.4 0.4 0.2 0.2 0.4 0.4 0.1 0.3 0.2 0.6 0.1 0.2 0.1 0.5c0 0.8-0.5 1.5-1.2 1.9l-21.6 12c-1.3 0.7-2.9 0.7-4.2-0.1l-35.6-20.3c-1.4-0.7-2.3-2.1-2.3-3.7v-41.4q0-0.6 0.2-1.2 0.1-0.5 0.4-1 0.3-0.5 0.7-0.9 0.4-0.4 0.9-0.7l35.9-20.7q1-0.6 2.2-0.6 0.2 0 0.5 0.1zm-107.9 30.9q-0.1 0-0.1 0-0.1 0-0.2 0 0 0-0.1 0 0 0.1-0.1 0.1l-12.3 7.1c-0.3 0.2-0.6 0.6-0.6 1v14.2c0 0.4 0.3 0.7 0.6 0.9l12.3 7.2q0.1 0 0.3 0.1 0.1 0 0.2 0 0.2 0 0.3 0 0.2-0.1 0.3-0.1l12.3-7.2c0.3-0.2 0.6-0.5 0.6-0.9v-14.2c0-0.4-0.3-0.8-0.6-1l-12.3-7.1c-0.2-0.1-0.4-0.1-0.6-0.1q0 0 0 0z"/><path class="a" d="m148.7 53.4q-1.1 0-2.1 0.6l-35.9 20.6c-1.4 0.8-2.2 2.3-2.2 3.8v41.5c0 1.5 0.8 3 2.2 3.7l35.9 20.7q0.4 0.3 1 0.5 0.5 0.1 1.1 0.1 0.6 0 1.1-0.1 0.6-0.2 1.1-0.5l35.9-20.7q0.5-0.3 0.9-0.7 0.4-0.4 0.7-0.9 0.2-0.4 0.4-1 0.1-0.5 0.1-1.1v-41.5c0-1.5-0.8-3-2.1-3.8l-35.9-20.6q-0.3-0.2-0.5-0.3-0.3-0.1-0.6-0.2-0.2 0-0.5-0.1-0.3 0-0.6 0zm214.7 37c-0.1 0-0.3 0-0.4 0.1l-6.9 4q-0.1 0-0.2 0.1-0.1 0.1-0.1 0.2-0.1 0.1-0.1 0.2-0.1 0.1-0.1 0.2v7.9c0 0.3 0.2 0.6 0.5 0.7l6.9 4q0.4 0.2 0.8 0l6.9-4q0.1 0 0.2-0.1 0-0.1 0.1-0.2 0-0.1 0.1-0.2 0-0.1 0-0.2v-7.9q0-0.1 0-0.2-0.1-0.1-0.1-0.2-0.1-0.1-0.1-0.2-0.1-0.1-0.2-0.1l-6.9-4c-0.2-0.1-0.2-0.1-0.4-0.1z"/></svg>