<svg version="1.2" xmlns="http://www.w3.org/2000/svg" viewBox="0 0 105 37" width="105" height="37"><style>.a{fill:#41b883}.b{fill:#35495e}.c{fill:#010101}</style><path fill-rule="evenodd" class="a" d="m34.5 0h8.5l-21.5 36.9-21.5-36.9h8.7l12.8 22.2z"/><path fill-rule="evenodd" class="b" d="m26.5-0.1h8l-13 22.3-12.9-22.3h8l4.9 8.6z"/><path fill-rule="evenodd" class="c" d="m48 7.2q0-0.4 0.5-0.6 0.4-0.3 0.9-0.3 0.7 0 0.9 0.5l4.8 16.2 4.8-16.2q0.2-0.5 0.8-0.5 0.6 0 1 0.3 0.5 0.3 0.5 0.7 0 0 0 0 0 0.1 0 0.1l-5.6 18.2q-0.3 0.7-1.5 0.7-1.1 0-1.4-0.7l-5.6-18.2q-0.1-0.1-0.1-0.2zm14.4 14v-7.1q0-0.3 0.3-0.6 0.4-0.2 0.8-0.2 0.5 0 0.8 0.2 0.4 0.3 0.4 0.6v7.1q0 1.2 0.9 2.2 0.9 1 2.2 1 1.3 0 2.2-1 1-1 1-2.2v-7.1q0-0.3 0.3-0.6 0.4-0.2 0.8-0.2 0.5 0 0.8 0.2 0.4 0.2 0.4 0.6v7.1q0 2.1-1.7 3.6-1.6 1.6-3.8 1.6-2.2 0-3.8-1.6-1.6-1.5-1.6-3.6zm12.7-0.1v-2.8q0-2.1 1.6-3.7 1.6-1.5 3.9-1.5 2.1 0 3.7 1.4 1.6 1.5 1.6 3.6 0 0.8-0.2 1.3-0.2 0.5-0.6 0.7-0.4 0.2-0.8 0.2-0.3 0.1-0.9 0.1h-6v0.8q0 1.5 1.1 2.4 1.1 0.9 2.8 0.9 0.9 0 1.6-0.3 0.7-0.3 1.1-0.5 0.4-0.3 0.6-0.3 0.4 0 0.7 0.4 0.3 0.3 0.3 0.7 0 0.6-1.3 1.2-1.2 0.7-3.1 0.7-2.7 0-4.4-1.5-1.7-1.4-1.7-3.8zm2.3-2.2h5.1q0.7 0 0.9-0.2 0.3-0.2 0.3-0.7 0-1.2-0.9-2.2-0.9-0.9-2.2-0.9-1.3 0-2.3 0.9-0.9 0.8-0.9 2.1zm9.6 6q0-0.6 0.4-1 0.4-0.4 1-0.4 0.6 0 1 0.4 0.4 0.4 0.4 1 0 0.6-0.4 1-0.4 0.5-1 0.5-0.6 0-1-0.5-0.4-0.4-0.4-1zm2 6.6q0-0.5 0.3-0.8 0.3-0.3 0.7-0.3 1 0 1.4-0.7 0.3-0.8 0.3-2.4v-13.2q0-0.4 0.3-0.6 0.3-0.2 0.8-0.2 0.5 0 0.9 0.2 0.3 0.2 0.3 0.6v13.2q0 2.4-0.9 3.7-1 1.4-2.9 1.4-1.2 0-1.2-0.9zm2.4-23.1q0-0.5 0.4-0.8 0.4-0.4 1-0.4 0.6 0 1 0.4 0.4 0.3 0.4 0.8 0 0.6-0.4 1-0.4 0.4-1 0.4-0.5 0-1-0.4-0.4-0.4-0.4-1zm4.3 15.9q0-0.3 0.2-0.6 0.3-0.4 0.6-0.4 0.2 0 0.6 0.3 0.4 0.4 1.2 0.7 0.8 0.3 1.8 0.3 1.4 0 2-0.5 0.6-0.5 0.6-1.2 0-0.9-0.7-1.5-0.7-0.5-1.6-0.8-1-0.2-2-0.6-1-0.3-1.7-1-0.7-0.8-0.7-2.1 0-1.5 1.1-2.6 1.1-1.2 3.4-1.2 1.5 0 2.7 0.5 1.2 0.4 1.2 1 0 0.3-0.3 0.7-0.2 0.4-0.6 0.4-0.1 0-1.1-0.3-0.9-0.4-1.8-0.4-1.3 0-1.9 0.5-0.6 0.6-0.6 1.4 0 0.7 0.6 1.2 0.7 0.4 1.7 0.6 1 0.3 2 0.6 1 0.4 1.7 1.3 0.7 0.8 0.7 2.2 0 1.7-1.2 2.6-1.2 1-3.4 1-1.9 0-3.2-0.6-1.3-0.7-1.3-1.5z"/></svg>